<svg viewBox="0 0 330 200" xmlns="http://www.w3.org/2000/svg"><g><g><g><g><g><line x1="51.5625" y1="177" x2="46.5625" y2="177" style="visibility: inherit;" fill="rgb(0, 0, 0)" stroke="rgb(204, 204, 204)" stroke-width="1px"></line><line x1="51.5625" y1="157.33333333333331" x2="46.5625" y2="157.33333333333331" style="visibility: inherit;" fill="rgb(0, 0, 0)" stroke="rgb(204, 204, 204)" stroke-width="1px"></line><line x1="51.5625" y1="137.66666666666666" x2="46.5625" y2="137.66666666666666" style="visibility: inherit;" fill="rgb(0, 0, 0)" stroke="rgb(204, 204, 204)" stroke-width="1px"></line><line x1="51.5625" y1="118" x2="46.5625" y2="118" style="visibility: inherit;" fill="rgb(0, 0, 0)" stroke="rgb(204, 204, 204)" stroke-width="1px"></line><line x1="51.5625" y1="98.33333333333334" x2="46.5625" y2="98.33333333333334" style="visibility: inherit;" fill="rgb(0, 0, 0)" stroke="rgb(204, 204, 204)" stroke-width="1px"></line><line x1="51.5625" y1="78.66666666666666" x2="46.5625" y2="78.66666666666666" style="visibility: inherit;" fill="rgb(0, 0, 0)" stroke="rgb(204, 204, 204)" stroke-width="1px"></line><line x1="51.5625" y1="59.00000000000001" x2="46.5625" y2="59.00000000000001" style="visibility: inherit;" fill="rgb(0, 0, 0)" stroke="rgb(204, 204, 204)" stroke-width="1px"></line><line x1="51.5625" y1="39.33333333333335" x2="46.5625" y2="39.33333333333335" style="visibility: inherit;" fill="rgb(0, 0, 0)" stroke="rgb(204, 204, 204)" stroke-width="1px"></line><line x1="51.5625" y1="19.666666666666675" x2="46.5625" y2="19.666666666666675" style="visibility: inherit;" fill="rgb(0, 0, 0)" stroke="rgb(204, 204, 204)" stroke-width="1px"></line><line x1="51.5625" y1="0" x2="46.5625" y2="0" style="visibility: inherit;" fill="rgb(0, 0, 0)" stroke="rgb(204, 204, 204)" stroke-width="1px"></line></g><g transform="translate(41.5625, 0)"><text x="0" y="177" dx="0em" dy="0.3em" style="text-anchor: end; visibility: hidden; font-family: Roboto, sans-serif; font-size: 12px; font-weight: 200;" fill="rgb(33, 33, 33)" stroke="none" stroke-width="1px">-0.2</text><text x="0" y="157.33333333333331" dx="0em" dy="0.3em" style="text-anchor: end; visibility: inherit; font-family: Roboto, sans-serif; font-size: 12px; font-weight: 200;" fill="rgb(33, 33, 33)" stroke="none" stroke-width="1px">0</text><text x="0" y="137.66666666666666" dx="0em" dy="0.3em" style="text-anchor: end; visibility: hidden; font-family: Roboto, sans-serif; font-size: 12px; font-weight: 200;" fill="rgb(33, 33, 33)" stroke="none" stroke-width="1px">0.2</text><text x="0" y="118" dx="0em" dy="0.3em" style="text-anchor: end; visibility: inherit; font-family: Roboto, sans-serif; font-size: 12px; font-weight: 200;" fill="rgb(33, 33, 33)" stroke="none" stroke-width="1px">0.4</text><text x="0" y="98.33333333333334" dx="0em" dy="0.3em" style="text-anchor: end; visibility: hidden; font-family: Roboto, sans-serif; font-size: 12px; font-weight: 200;" fill="rgb(33, 33, 33)" stroke="none" stroke-width="1px">0.6</text><text x="0" y="78.66666666666666" dx="0em" dy="0.3em" style="text-anchor: end; visibility: inherit; font-family: Roboto, sans-serif; font-size: 12px; font-weight: 200;" fill="rgb(33, 33, 33)" stroke="none" stroke-width="1px">0.8</text><text x="0" y="59.00000000000001" dx="0em" dy="0.3em" style="text-anchor: end; visibility: hidden; font-family: Roboto, sans-serif; font-size: 12px; font-weight: 200;" fill="rgb(33, 33, 33)" stroke="none" stroke-width="1px">1</text><text x="0" y="39.33333333333335" dx="0em" dy="0.3em" style="text-anchor: end; visibility: inherit; font-family: Roboto, sans-serif; font-size: 12px; font-weight: 200;" fill="rgb(33, 33, 33)" stroke="none" stroke-width="1px">1.2</text><text x="0" y="19.666666666666675" dx="0em" dy="0.3em" style="text-anchor: end; visibility: hidden; font-family: Roboto, sans-serif; font-size: 12px; font-weight: 200;" fill="rgb(33, 33, 33)" stroke="none" stroke-width="1px">1.4</text><text x="0" y="0" dx="0em" dy="0.3em" style="text-anchor: end; visibility: hidden; font-family: Roboto, sans-serif; font-size: 12px; font-weight: 200;" fill="rgb(33, 33, 33)" stroke="none" stroke-width="1px">1.6</text></g><line x1="51.5625" y1="0" x2="51.5625" y2="177" fill="rgb(0, 0, 0)" stroke="rgb(204, 204, 204)" stroke-width="1px"></line></g></g><g transform="translate(51, 0)" clip-path="url(#clip_0)"><clipPath id="clip_0"><rect width="278" height="177"></rect></clipPath><g><g><g><line x1="0" y1="0" x2="0" y2="177" fill="rgb(0, 0, 0)" stroke="rgb(66, 66, 66)" stroke-width="1px" opacity="0.25"></line><line x1="34.8046875" y1="0" x2="34.8046875" y2="177" fill="rgb(0, 0, 0)" stroke="rgb(66, 66, 66)" stroke-width="1px" opacity="0.25"></line><line x1="69.609375" y1="0" x2="69.609375" y2="177" fill="rgb(0, 0, 0)" stroke="rgb(66, 66, 66)" stroke-width="1px" opacity="0.25"></line><line x1="104.4140625" y1="0" x2="104.4140625" y2="177" fill="rgb(0, 0, 0)" stroke="rgb(66, 66, 66)" stroke-width="1px" opacity="0.25"></line><line x1="139.21875" y1="0" x2="139.21875" y2="177" fill="rgb(0, 0, 0)" stroke="rgb(66, 66, 66)" stroke-width="1px" opacity="0.25"></line><line x1="174.0234375" y1="0" x2="174.0234375" y2="177" fill="rgb(0, 0, 0)" stroke="rgb(66, 66, 66)" stroke-width="1px" opacity="0.25"></line><line x1="208.828125" y1="0" x2="208.828125" y2="177" fill="rgb(0, 0, 0)" stroke="rgb(66, 66, 66)" stroke-width="1px" opacity="0.25"></line><line x1="243.6328125" y1="0" x2="243.6328125" y2="177" fill="rgb(0, 0, 0)" stroke="rgb(66, 66, 66)" stroke-width="1px" opacity="0.25"></line><line x1="278.4375" y1="0" x2="278.4375" y2="177" fill="rgb(0, 0, 0)" stroke="rgb(66, 66, 66)" stroke-width="1px" opacity="0.25"></line></g><g><line x1="0" y1="177" x2="278.4375" y2="177" fill="rgb(0, 0, 0)" stroke="rgb(66, 66, 66)" stroke-width="1px" opacity="0.25"></line><line x1="0" y1="157.33333333333331" x2="278.4375" y2="157.33333333333331" fill="rgb(0, 0, 0)" stroke="rgb(66, 66, 66)" stroke-width="1px" opacity="0.25"></line><line x1="0" y1="137.66666666666666" x2="278.4375" y2="137.66666666666666" fill="rgb(0, 0, 0)" stroke="rgb(66, 66, 66)" stroke-width="1px" opacity="0.25"></line><line x1="0" y1="118" x2="278.4375" y2="118" fill="rgb(0, 0, 0)" stroke="rgb(66, 66, 66)" stroke-width="1px" opacity="0.25"></line><line x1="0" y1="98.33333333333334" x2="278.4375" y2="98.33333333333334" fill="rgb(0, 0, 0)" stroke="rgb(66, 66, 66)" stroke-width="1px" opacity="0.25"></line><line x1="0" y1="78.66666666666666" x2="278.4375" y2="78.66666666666666" fill="rgb(0, 0, 0)" stroke="rgb(66, 66, 66)" stroke-width="1px" opacity="0.25"></line><line x1="0" y1="59.00000000000001" x2="278.4375" y2="59.00000000000001" fill="rgb(0, 0, 0)" stroke="rgb(66, 66, 66)" stroke-width="1px" opacity="0.25"></line><line x1="0" y1="39.33333333333335" x2="278.4375" y2="39.33333333333335" fill="rgb(0, 0, 0)" stroke="rgb(66, 66, 66)" stroke-width="1px" opacity="0.25"></line><line x1="0" y1="19.666666666666675" x2="278.4375" y2="19.666666666666675" fill="rgb(0, 0, 0)" stroke="rgb(66, 66, 66)" stroke-width="1px" opacity="0.25"></line><line x1="0" y1="0" x2="278.4375" y2="0" fill="rgb(0, 0, 0)" stroke="rgb(66, 66, 66)" stroke-width="1px" opacity="0.25"></line></g></g></g><g><g><line x1="0" y1="157.33333333333331" x2="278.4375" y2="157.33333333333331" fill="rgb(0, 0, 0)" stroke="rgb(153, 153, 153)" stroke-width="1.5px"></line></g></g><g><g><line x1="34.8046875" y1="0" x2="34.8046875" y2="177" fill="rgb(0, 0, 0)" stroke="rgb(153, 153, 153)" stroke-width="1.5px"></line></g></g><g><g><g><g><g><path stroke="rgb(51, 187, 238)" stroke-width="2px" d="M44.1253828125,-12.506685917722205L46.457296875,3.2395446288373546L48.789210937499995,17.945334420659172L51.121125000000006,31.818374562456288L53.453039062500004,44.52168892987493L55.784953125,55.91445427902193L58.1168671875,66.50092202421867L60.448781249999996,76.1258780537113L62.7806953125,84.7319718229324L65.112609375,91.9034885205675L67.4445234375,97.68744142533846L69.7764375,102.7628233662791L72.1083515625,106.76474067296631L74.440265625,110.86321929036995L76.7721796875,113.27100380869247L79.10409375,116.35353454609461L81.4360078125,119.07698130801752L83.767921875,121.62496465335957L86.0998359375,123.90269357170195L88.43175,125.78341602919875L90.7636640625,127.71328208737204L93.09557812499999,129.29791500011615L95.42749218750001,130.935739196735L97.75940625000001,132.4674116815017L100.0913203125,133.13801022890746L102.423234375,134.2960780070912L104.7551484375,135.83213339272706L107.0870625,136.9659519965784L109.4189765625,138.21860701131425L111.750890625,139.4278060156606L114.0828046875,139.84868879482042L116.41471875,140.99675416753323L118.7466328125,141.71301523076554L121.078546875,142.92339027812346L123.41046093749999,144.00822550097755L125.742375,145.11530343564425L128.07428906250001,146.05503061463133L130.406203125,146.38433465417629L132.7381171875,146.13993122698867L135.07003125,147.16830228113224L137.4019453125,148.0535768093794L139.733859375,148.82298710784144L142.0657734375,149.47748270937407L144.3976875,150.1979726278571L146.7296015625,150.88042606606354L149.061515625,151.46778791315714L151.3934296875,151.971210858234L153.72534375,152.20748772830376L156.05725781249998,152.26055248793347L158.389171875,152.2208167699955L160.7210859375,152.58187853672038L163.053,153.04806025203854L165.3849140625,152.35922450002082L167.716828125,152.59561275299026L170.04874218749998,152.67644591642798L172.38065625,153.27881508924597L174.7125703125,153.78590463141424L177.044484375,154.16631742789244L179.3763984375,154.46087470560607L181.70831249999998,154.69567060615225L184.04022656249998,154.88973000210882L186.37214062500001,155.05655137312826L188.70405468750002,155.2018470842883L191.03596875000002,155.33711949761184L193.3678828125,155.44786520764512L195.699796875,155.48222679276435L198.0317109375,155.44864578920107L200.363625,154.86637808806202L202.69553906250002,155.1270376963506L205.027453125,155.39748846839905L207.3593671875,155.60567966126527L209.69128125,155.76229202835634L212.0231953125,155.8797808694673L214.355109375,155.97283660530542L216.6870234375,156.04911569663085L219.0189375,156.11351075403311L221.3508515625,156.17100957959346L223.682765625,156.22486739625703L226.0146796875,156.27550567971767L228.34659375,156.32306708963972L230.6785078125,156.2702842551555L233.010421875,156.07187999003642L235.3423359375,156.05619848870347L237.67425,156.20880591136083L240.0061640625,156.08335084177176L242.33807812499998,155.8899672252364L244.6699921875,155.87801133850775L247.00190625,156.10762561677134L249.3338203125,156.27648806612632L251.665734375,156.41221474427297L253.99764843749998,156.50613172039132L256.3295625,156.57361445058976L258.6614765625,156.6237166974098L260.993390625,156.6628926601897L263.3253046875,156.6952350536122L265.65721874999997,156.72256809865243L267.9891328125,156.74581586078438" style="fill: none;" fill="none"></path></g></g></g></g><g opacity="0.2"><g><g><g><path stroke="rgb(51, 187, 238)" stroke-width="2px" d="M41.79346875,-9.250871300697327L44.1253828125,8.052806099255884L46.457296875,23.797823230425525L48.789210937499995,38.28873578707378L51.121125000000006,51.65704393386841L53.453039062500004,63.0432432293892L55.784953125,72.71657023827237L58.1168671875,82.22059283653896L60.448781249999996,90.47601445515951L62.7806953125,97.59427849451701L65.112609375,102.63734732071559L67.4445234375,106.35203941663107L69.7764375,110.36993035674095L72.1083515625,112.76479417085649L74.440265625,117.00920287768045L76.7721796875,116.88206924994786L79.10409375,120.97686105966568L81.4360078125,123.1619025170803L83.767921875,125.44679993391037L86.0998359375,127.31921199957529L88.43175,128.60446258385974L90.7636640625,130.6080583135287L93.09557812499999,131.67485310633978L95.42749218750001,133.39246850709122L97.75940625000001,134.76491648952165L100.0913203125,134.1439070204894L102.423234375,136.0331786076228L104.7551484375,138.1362156222264L107.0870625,138.66667952636877L109.4189765625,140.0975892841816L111.750890625,141.24160437782606L114.0828046875,140.4800129334132L116.41471875,142.7188521772623L118.7466328125,142.7874068071445L121.078546875,144.73895283043385L123.41046093749999,145.63547832518816L125.742375,146.77592033147812L128.07428906250001,147.4646213799715L130.406203125,146.8782907128334L132.7381171875,145.77332608650127L135.07003125,148.71085886160532L137.4019453125,149.3814886013667L139.733859375,149.97710255533457L142.0657734375,150.459226111571L144.3976875,151.27870750551423L146.7296015625,151.90410622333488L149.061515625,152.34883068377775L151.3934296875,152.72634527583918L153.72534375,152.56190303340554L156.05725781249998,152.34014962737757L158.389171875,152.16121319308877L160.7210859375,153.12347118680677L163.053,153.74733282501498L165.3849140625,151.32597087199488L167.716828125,152.95019513244432L170.04874218749998,152.79769566158453L172.38065625,154.18236884847283L174.7125703125,154.5465389446666L177.044484375,154.73693662260968L179.3763984375,154.90271062217653L181.70831249999998,155.0478644569715L184.04022656249998,155.1808190960437L186.37214062500001,155.30678342965743L188.70405468750002,155.41979065102836L191.03596875000002,155.5400281175971L193.3678828125,155.61398377269506L195.699796875,155.5337691704432L198.0317109375,155.39827428385615L200.363625,153.99297653635344L202.69553906250002,155.5180271087835L205.027453125,155.8031646264717L207.3593671875,155.91796645056456L209.69128125,155.99721057899296L212.0231953125,156.05601413113374L214.355109375,156.1124202090626L216.6870234375,156.16353433361897L219.0189375,156.21010334013653L221.3508515625,156.25725781793398L223.682765625,156.3056541212524L226.0146796875,156.35146310490867L228.34659375,156.39440920452276L230.6785078125,156.19111000342917L233.010421875,155.77427359235784L235.3423359375,156.032676236704L237.67425,156.4377170453469L240.0061640625,155.89516823738813L242.33807812499998,155.5998918004334L244.6699921875,155.8600775084148L247.00190625,156.45204703416675L249.3338203125,156.5297817401588L251.665734375,156.61580476149297L253.99764843749998,156.6470071845688L256.3295625,156.6748385458874L258.6614765625,156.6988700676399L260.993390625,156.72165660435957L263.3253046875,156.74374864374596L265.65721874999997,156.7635676662127L267.9891328125,156.78068750398234" style="fill: none;" fill="none"></path></g></g></g></g></g></g><g transform="translate(51, 177)" clip-path="url(#clip_1)"><clipPath id="clip_1"><rect width="278" height="23"></rect></clipPath><g><g><line x1="0" y1="0" x2="0" y2="5" style="visibility: inherit;" fill="rgb(0, 0, 0)" stroke="rgb(204, 204, 204)" stroke-width="1px"></line><line x1="34.8046875" y1="0" x2="34.8046875" y2="5" style="visibility: inherit;" fill="rgb(0, 0, 0)" stroke="rgb(204, 204, 204)" stroke-width="1px"></line><line x1="69.609375" y1="0" x2="69.609375" y2="5" style="visibility: inherit;" fill="rgb(0, 0, 0)" stroke="rgb(204, 204, 204)" stroke-width="1px"></line><line x1="104.4140625" y1="0" x2="104.4140625" y2="5" style="visibility: inherit;" fill="rgb(0, 0, 0)" stroke="rgb(204, 204, 204)" stroke-width="1px"></line><line x1="139.21875" y1="0" x2="139.21875" y2="5" style="visibility: inherit;" fill="rgb(0, 0, 0)" stroke="rgb(204, 204, 204)" stroke-width="1px"></line><line x1="174.0234375" y1="0" x2="174.0234375" y2="5" style="visibility: inherit;" fill="rgb(0, 0, 0)" stroke="rgb(204, 204, 204)" stroke-width="1px"></line><line x1="208.828125" y1="0" x2="208.828125" y2="5" style="visibility: inherit;" fill="rgb(0, 0, 0)" stroke="rgb(204, 204, 204)" stroke-width="1px"></line><line x1="243.6328125" y1="0" x2="243.6328125" y2="5" style="visibility: inherit;" fill="rgb(0, 0, 0)" stroke="rgb(204, 204, 204)" stroke-width="1px"></line><line x1="278.4375" y1="0" x2="278.4375" y2="5" style="visibility: inherit;" fill="rgb(0, 0, 0)" stroke="rgb(204, 204, 204)" stroke-width="1px"></line></g><g transform="translate(0, 8)"><text x="0" y="0" dx="0em" dy="0.95em" style="text-anchor: middle; visibility: hidden; font-family: Roboto, sans-serif; font-size: 12px; font-weight: 200;" fill="rgb(33, 33, 33)" stroke="none" stroke-width="1px">-5k</text><text x="34.8046875" y="0" dx="0em" dy="0.95em" style="text-anchor: middle; visibility: inherit; font-family: Roboto, sans-serif; font-size: 12px; font-weight: 200;" fill="rgb(33, 33, 33)" stroke="none" stroke-width="1px">0</text><text x="69.609375" y="0" dx="0em" dy="0.95em" style="text-anchor: middle; visibility: inherit; font-family: Roboto, sans-serif; font-size: 12px; font-weight: 200;" fill="rgb(33, 33, 33)" stroke="none" stroke-width="1px">5k</text><text x="104.4140625" y="0" dx="0em" dy="0.95em" style="text-anchor: middle; visibility: inherit; font-family: Roboto, sans-serif; font-size: 12px; font-weight: 200;" fill="rgb(33, 33, 33)" stroke="none" stroke-width="1px">10k</text><text x="139.21875" y="0" dx="0em" dy="0.95em" style="text-anchor: middle; visibility: inherit; font-family: Roboto, sans-serif; font-size: 12px; font-weight: 200;" fill="rgb(33, 33, 33)" stroke="none" stroke-width="1px">15k</text><text x="174.0234375" y="0" dx="0em" dy="0.95em" style="text-anchor: middle; visibility: inherit; font-family: Roboto, sans-serif; font-size: 12px; font-weight: 200;" fill="rgb(33, 33, 33)" stroke="none" stroke-width="1px">20k</text><text x="208.828125" y="0" dx="0em" dy="0.95em" style="text-anchor: middle; visibility: inherit; font-family: Roboto, sans-serif; font-size: 12px; font-weight: 200;" fill="rgb(33, 33, 33)" stroke="none" stroke-width="1px">25k</text><text x="243.6328125" y="0" dx="0em" dy="0.95em" style="text-anchor: middle; visibility: inherit; font-family: Roboto, sans-serif; font-size: 12px; font-weight: 200;" fill="rgb(33, 33, 33)" stroke="none" stroke-width="1px">30k</text><text x="278.4375" y="0" dx="0em" dy="0.95em" style="text-anchor: middle; visibility: hidden; font-family: Roboto, sans-serif; font-size: 12px; font-weight: 200;" fill="rgb(33, 33, 33)" stroke="none" stroke-width="1px">35k</text></g><line x1="0" y1="0" x2="278.4375" y2="0" fill="rgb(0, 0, 0)" stroke="rgb(204, 204, 204)" stroke-width="1px"></line></g></g></g></g></svg>