<svg viewBox="0 0 330 200" xmlns="http://www.w3.org/2000/svg"><g><g><g><g><g><line x1="41.171875" y1="177" x2="36.171875" y2="177" style="visibility: inherit;" fill="rgb(0, 0, 0)" stroke="rgb(204, 204, 204)" stroke-width="1px"></line><line x1="41.171875" y1="159.3" x2="36.171875" y2="159.3" style="visibility: inherit;" fill="rgb(0, 0, 0)" stroke="rgb(204, 204, 204)" stroke-width="1px"></line><line x1="41.171875" y1="141.6" x2="36.171875" y2="141.6" style="visibility: inherit;" fill="rgb(0, 0, 0)" stroke="rgb(204, 204, 204)" stroke-width="1px"></line><line x1="41.171875" y1="123.89999999999999" x2="36.171875" y2="123.89999999999999" style="visibility: inherit;" fill="rgb(0, 0, 0)" stroke="rgb(204, 204, 204)" stroke-width="1px"></line><line x1="41.171875" y1="106.2" x2="36.171875" y2="106.2" style="visibility: inherit;" fill="rgb(0, 0, 0)" stroke="rgb(204, 204, 204)" stroke-width="1px"></line><line x1="41.171875" y1="88.49999999999999" x2="36.171875" y2="88.49999999999999" style="visibility: inherit;" fill="rgb(0, 0, 0)" stroke="rgb(204, 204, 204)" stroke-width="1px"></line><line x1="41.171875" y1="70.8" x2="36.171875" y2="70.8" style="visibility: inherit;" fill="rgb(0, 0, 0)" stroke="rgb(204, 204, 204)" stroke-width="1px"></line><line x1="41.171875" y1="53.09999999999999" x2="36.171875" y2="53.09999999999999" style="visibility: inherit;" fill="rgb(0, 0, 0)" stroke="rgb(204, 204, 204)" stroke-width="1px"></line><line x1="41.171875" y1="35.399999999999956" x2="36.171875" y2="35.399999999999956" style="visibility: inherit;" fill="rgb(0, 0, 0)" stroke="rgb(204, 204, 204)" stroke-width="1px"></line><line x1="41.171875" y1="17.69999999999994" x2="36.171875" y2="17.69999999999994" style="visibility: inherit;" fill="rgb(0, 0, 0)" stroke="rgb(204, 204, 204)" stroke-width="1px"></line><line x1="41.171875" y1="0" x2="36.171875" y2="0" style="visibility: inherit;" fill="rgb(0, 0, 0)" stroke="rgb(204, 204, 204)" stroke-width="1px"></line></g><g transform="translate(31.171875, 0)"><text x="0" y="177" dx="0em" dy="0.3em" style="text-anchor: end; visibility: hidden; font-family: Roboto, sans-serif; font-size: 12px; font-weight: 200;" fill="rgb(33, 33, 33)" stroke="none" stroke-width="1px">1.3</text><text x="0" y="159.3" dx="0em" dy="0.3em" style="text-anchor: end; visibility: inherit; font-family: Roboto, sans-serif; font-size: 12px; font-weight: 200;" fill="rgb(33, 33, 33)" stroke="none" stroke-width="1px">1.4</text><text x="0" y="141.6" dx="0em" dy="0.3em" style="text-anchor: end; visibility: hidden; font-family: Roboto, sans-serif; font-size: 12px; font-weight: 200;" fill="rgb(33, 33, 33)" stroke="none" stroke-width="1px">1.5</text><text x="0" y="123.89999999999999" dx="0em" dy="0.3em" style="text-anchor: end; visibility: inherit; font-family: Roboto, sans-serif; font-size: 12px; font-weight: 200;" fill="rgb(33, 33, 33)" stroke="none" stroke-width="1px">1.6</text><text x="0" y="106.2" dx="0em" dy="0.3em" style="text-anchor: end; visibility: hidden; font-family: Roboto, sans-serif; font-size: 12px; font-weight: 200;" fill="rgb(33, 33, 33)" stroke="none" stroke-width="1px">1.7</text><text x="0" y="88.49999999999999" dx="0em" dy="0.3em" style="text-anchor: end; visibility: inherit; font-family: Roboto, sans-serif; font-size: 12px; font-weight: 200;" fill="rgb(33, 33, 33)" stroke="none" stroke-width="1px">1.8</text><text x="0" y="70.8" dx="0em" dy="0.3em" style="text-anchor: end; visibility: hidden; font-family: Roboto, sans-serif; font-size: 12px; font-weight: 200;" fill="rgb(33, 33, 33)" stroke="none" stroke-width="1px">1.9</text><text x="0" y="53.09999999999999" dx="0em" dy="0.3em" style="text-anchor: end; visibility: inherit; font-family: Roboto, sans-serif; font-size: 12px; font-weight: 200;" fill="rgb(33, 33, 33)" stroke="none" stroke-width="1px">2</text><text x="0" y="35.399999999999956" dx="0em" dy="0.3em" style="text-anchor: end; visibility: hidden; font-family: Roboto, sans-serif; font-size: 12px; font-weight: 200;" fill="rgb(33, 33, 33)" stroke="none" stroke-width="1px">2.1</text><text x="0" y="17.69999999999994" dx="0em" dy="0.3em" style="text-anchor: end; visibility: inherit; font-family: Roboto, sans-serif; font-size: 12px; font-weight: 200;" fill="rgb(33, 33, 33)" stroke="none" stroke-width="1px">2.2</text><text x="0" y="0" dx="0em" dy="0.3em" style="text-anchor: end; visibility: hidden; font-family: Roboto, sans-serif; font-size: 12px; font-weight: 200;" fill="rgb(33, 33, 33)" stroke="none" stroke-width="1px">2.3</text></g><line x1="41.171875" y1="0" x2="41.171875" y2="177" fill="rgb(0, 0, 0)" stroke="rgb(204, 204, 204)" stroke-width="1px"></line></g></g><g transform="translate(41, 0)" clip-path="url(#clip_0)"><clipPath id="clip_0"><rect width="288" height="177"></rect></clipPath><g><g><g><line x1="0" y1="0" x2="0" y2="177" fill="rgb(0, 0, 0)" stroke="rgb(66, 66, 66)" stroke-width="1px" opacity="0.25"></line><line x1="28.8828125" y1="0" x2="28.8828125" y2="177" fill="rgb(0, 0, 0)" stroke="rgb(66, 66, 66)" stroke-width="1px" opacity="0.25"></line><line x1="57.765625" y1="0" x2="57.765625" y2="177" fill="rgb(0, 0, 0)" stroke="rgb(66, 66, 66)" stroke-width="1px" opacity="0.25"></line><line x1="86.6484375" y1="0" x2="86.6484375" y2="177" fill="rgb(0, 0, 0)" stroke="rgb(66, 66, 66)" stroke-width="1px" opacity="0.25"></line><line x1="115.53125" y1="0" x2="115.53125" y2="177" fill="rgb(0, 0, 0)" stroke="rgb(66, 66, 66)" stroke-width="1px" opacity="0.25"></line><line x1="144.4140625" y1="0" x2="144.4140625" y2="177" fill="rgb(0, 0, 0)" stroke="rgb(66, 66, 66)" stroke-width="1px" opacity="0.25"></line><line x1="173.296875" y1="0" x2="173.296875" y2="177" fill="rgb(0, 0, 0)" stroke="rgb(66, 66, 66)" stroke-width="1px" opacity="0.25"></line><line x1="202.1796875" y1="0" x2="202.1796875" y2="177" fill="rgb(0, 0, 0)" stroke="rgb(66, 66, 66)" stroke-width="1px" opacity="0.25"></line><line x1="231.0625" y1="0" x2="231.0625" y2="177" fill="rgb(0, 0, 0)" stroke="rgb(66, 66, 66)" stroke-width="1px" opacity="0.25"></line><line x1="259.9453125" y1="0" x2="259.9453125" y2="177" fill="rgb(0, 0, 0)" stroke="rgb(66, 66, 66)" stroke-width="1px" opacity="0.25"></line><line x1="288.828125" y1="0" x2="288.828125" y2="177" fill="rgb(0, 0, 0)" stroke="rgb(66, 66, 66)" stroke-width="1px" opacity="0.25"></line></g><g><line x1="0" y1="177" x2="288.828125" y2="177" fill="rgb(0, 0, 0)" stroke="rgb(66, 66, 66)" stroke-width="1px" opacity="0.25"></line><line x1="0" y1="159.3" x2="288.828125" y2="159.3" fill="rgb(0, 0, 0)" stroke="rgb(66, 66, 66)" stroke-width="1px" opacity="0.25"></line><line x1="0" y1="141.6" x2="288.828125" y2="141.6" fill="rgb(0, 0, 0)" stroke="rgb(66, 66, 66)" stroke-width="1px" opacity="0.25"></line><line x1="0" y1="123.89999999999999" x2="288.828125" y2="123.89999999999999" fill="rgb(0, 0, 0)" stroke="rgb(66, 66, 66)" stroke-width="1px" opacity="0.25"></line><line x1="0" y1="106.2" x2="288.828125" y2="106.2" fill="rgb(0, 0, 0)" stroke="rgb(66, 66, 66)" stroke-width="1px" opacity="0.25"></line><line x1="0" y1="88.49999999999999" x2="288.828125" y2="88.49999999999999" fill="rgb(0, 0, 0)" stroke="rgb(66, 66, 66)" stroke-width="1px" opacity="0.25"></line><line x1="0" y1="70.8" x2="288.828125" y2="70.8" fill="rgb(0, 0, 0)" stroke="rgb(66, 66, 66)" stroke-width="1px" opacity="0.25"></line><line x1="0" y1="53.09999999999999" x2="288.828125" y2="53.09999999999999" fill="rgb(0, 0, 0)" stroke="rgb(66, 66, 66)" stroke-width="1px" opacity="0.25"></line><line x1="0" y1="35.399999999999956" x2="288.828125" y2="35.399999999999956" fill="rgb(0, 0, 0)" stroke="rgb(66, 66, 66)" stroke-width="1px" opacity="0.25"></line><line x1="0" y1="17.69999999999994" x2="288.828125" y2="17.69999999999994" fill="rgb(0, 0, 0)" stroke="rgb(66, 66, 66)" stroke-width="1px" opacity="0.25"></line><line x1="0" y1="0" x2="288.828125" y2="0" fill="rgb(0, 0, 0)" stroke="rgb(66, 66, 66)" stroke-width="1px" opacity="0.25"></line></g></g></g><g><g><line x1="0" y1="407.1" x2="288.828125" y2="407.1" fill="rgb(0, 0, 0)" stroke="rgb(153, 153, 153)" stroke-width="1.5px"></line></g></g><g><g><line x1="28.8828125" y1="0" x2="28.8828125" y2="177" fill="rgb(0, 0, 0)" stroke="rgb(153, 153, 153)" stroke-width="1.5px"></line></g></g><g><g><g><g><g><path stroke="rgb(187, 187, 187)" stroke-width="2px" d="M40.55146875,-6.382059859633874L42.8909765625,10.709236773339544L45.230484374999996,24.458496858195204L47.569992187500006,35.6940837304436L49.9095,45.02130138469064L52.249007812500004,52.94813112549058L54.588515625,59.75565358373308L56.9280234375,65.74054117509604L59.26753125,71.05874362896076L61.6070390625,75.84250057808866L63.946546875,80.16945020170256L66.2860546875,84.16186390298617L68.6255625,87.88381448481992L70.9650703125,91.33790022987803L73.304578125,94.57947846102617L75.64408593750001,97.58724834893037L77.98359375000001,100.40876618096345L80.3231015625,103.04536182713656L82.662609375,105.53060547262069L85.0021171875,107.86098467545291L87.34162500000001,110.01697739365291L89.6811328125,112.00611214679711L92.020640625,113.86262241619546L94.3601484375,115.50003666113075L96.69965624999999,117.10663254347325L99.03916406249999,118.82079771319243L101.378671875,120.26865578758651L103.7181796875,122.02729448646315L106.05768750000001,123.39827777358036L108.3971953125,124.76115545250963L110.736703125,126.06150757532339L113.07621093750001,127.06141249770721L115.41571875,127.8085493541392L117.7552265625,129.4266432426831L120.094734375,130.85808821892536L122.4342421875,132.14711758533053L124.77374999999999,132.74553987693463L127.1132578125,132.84474198651125L129.45276562499998,134.24891843259235L131.7922734375,135.48566596684364L134.13178125,136.25553278560008L136.4712890625,137.37229697016627L138.810796875,138.50217608520296L141.1503046875,139.5742692608413L143.4898125,139.80745002620395L145.82932031250002,140.24790751572593L148.168828125,140.8417056205072L150.5083359375,141.02146995319168L152.84784375,142.32439285906327L155.1873515625,143.48917992587315L157.526859375,144.4794775371285L159.8663671875,145.41602542188988L162.205875,146.13406916014708L164.5453828125,146.77031699390633L166.884890625,146.7472318051542L169.22439843749999,147.16996592749868L171.56390625,148.09323740523885L173.9034140625,148.81440548254153L176.24292187499998,149.36406809421243L178.5824296875,149.86875970799844L180.92193749999998,150.66229418539476L183.26144531249997,151.20731917633694L185.600953125,152.1030732036476L187.94046093749998,152.84566025023727L190.27996875000002,153.54974710038346L192.6194765625,153.71265178615477L194.958984375,154.28518779334206L197.29849218750002,154.6901442864941L199.638,155.35620782967843L201.97750781250002,155.92212274430062L204.317015625,156.4355276176802L206.6565234375,156.97543470796774L208.99603125000002,157.53751406155126L211.3355390625,158.09708861995995L213.675046875,158.6610092335299L216.0145546875,159.1241219433162L218.3540625,159.60623799753267L220.69357031250001,160.09535880918548L223.033078125,160.1508649971202L225.3725859375,160.2534021750757L227.71209375,160.93057313297206L230.0516015625,161.64653151711232L232.39110937499998,162.27181367802862L234.7306171875,162.8109387584224L237.070125,163.17797273800937L239.40963281249998,163.15096812728746L241.749140625,163.37799823095622L244.08864843749998,163.83291136151684L246.42815625,164.44524923161347L248.7676640625,164.9042092656832L251.10717187499998,165.36467487429027L253.4466796875,165.81795829066303L255.7861875,166.28203158336083L258.1256953125,166.65785648320437L260.465203125,166.9647469538112L262.80471093750003,167.2074380789792" style="fill: none;" fill="none"></path></g></g></g></g><g opacity="0.2"><g><g><g><path stroke="rgb(187, 187, 187)" stroke-width="2px" d="M35.872453125,-16.523394012451202L38.2119609375,6.708936309814422L40.55146875,22.244054889678925L42.8909765625,34.35265288352963L45.230484374999996,44.12015876770016L47.569992187500006,52.07567725181578L49.9095,58.77713570594786L52.249007812500004,64.71854946613311L54.588515625,69.90519354343414L56.9280234375,74.685303068161L59.26753125,79.01868245601653L61.6070390625,83.00876412391662L63.946546875,86.65478847026824L66.2860546875,90.14766869544982L68.6255625,93.46516535282134L70.9650703125,96.51815185546874L73.304578125,99.44135198593139L75.64408593750001,102.09862825870513L77.98359375000001,104.64088819026946L80.3231015625,107.00016853809356L82.662609375,109.25842187404632L85.0021171875,111.35652587413789L87.34162500000001,113.25095114707948L89.6811328125,114.98980579376222L92.020640625,116.64738306999207L94.3601484375,117.95615551471711L96.69965624999999,119.51652488708497L99.03916406249999,121.39204452037812L101.378671875,122.44044241905213L103.7181796875,124.66525218486787L106.05768750000001,125.45475254058839L108.3971953125,126.8054718732834L110.736703125,128.01203570365905L113.07621093750001,128.56126985549926L115.41571875,128.92925462722778L117.7552265625,131.8537840604782L120.094734375,133.00525567531585L122.4342421875,134.0806616306305L124.77374999999999,133.64317331314086L127.1132578125,132.99354515075683L129.45276562499998,136.35518310070037L131.7922734375,137.34078726768493L134.13178125,137.41033301353454L136.4712890625,139.04744324684142L138.810796875,140.19699475765228L141.1503046875,141.18240902423858L143.4898125,140.1572211742401L145.82932031250002,140.90859375L148.168828125,141.7324027776718L150.5083359375,141.2911164522171L152.84784375,144.27877721786498L155.1873515625,145.2363605260849L157.526859375,145.96492395401L159.8663671875,146.82084724903106L162.205875,147.21113476753234L164.5453828125,147.72468874454498L166.884890625,146.71260402202606L169.22439843749999,147.8040671110153L171.56390625,149.47814462184905L173.9034140625,149.89615759849548L176.24292187499998,150.18856201171874L178.5824296875,150.62579712867736L180.92193749999998,151.85259590148925L183.26144531249997,152.02485666275024L185.600953125,153.44670424461364L187.94046093749998,153.95954082012176L190.27996875000002,154.60587737560272L192.6194765625,153.9570088148117L194.958984375,155.14399180412292L197.29849218750002,155.29757902622222L199.638,156.35530314445495L201.97750781250002,156.77099511623382L204.317015625,157.20563492774963L206.6565234375,157.78529534339904L208.99603125000002,158.38063309192657L211.3355390625,158.93645045757293L213.675046875,159.50689015388488L216.0145546875,159.8187910079956L218.3540625,160.32941207885742L220.69357031250001,160.82904002666473L223.033078125,160.2341242790222L225.3725859375,160.40720794200897L227.71209375,161.94632956981658L230.0516015625,162.72046909332275L232.39110937499998,163.20973691940307L234.7306171875,163.61962637901306L237.070125,163.72852370738983L239.40963281249998,163.11046121120452L241.749140625,163.71854338645934L244.08864843749998,164.51528105735778L246.42815625,165.36375603675842L248.7676640625,165.5926493167877L251.10717187499998,166.05537328720092L253.4466796875,166.49788341522216L255.7861875,166.97814152240753L258.1256953125,167.22159383296966L260.465203125,167.42508265972137L262.80471093750003,167.57147476673126" style="fill: none;" fill="none"></path></g></g></g></g></g></g><g transform="translate(41, 177)" clip-path="url(#clip_1)"><clipPath id="clip_1"><rect width="288" height="23"></rect></clipPath><g><g><line x1="0" y1="0" x2="0" y2="5" style="visibility: inherit;" fill="rgb(0, 0, 0)" stroke="rgb(204, 204, 204)" stroke-width="1px"></line><line x1="28.8828125" y1="0" x2="28.8828125" y2="5" style="visibility: inherit;" fill="rgb(0, 0, 0)" stroke="rgb(204, 204, 204)" stroke-width="1px"></line><line x1="57.765625" y1="0" x2="57.765625" y2="5" style="visibility: inherit;" fill="rgb(0, 0, 0)" stroke="rgb(204, 204, 204)" stroke-width="1px"></line><line x1="86.6484375" y1="0" x2="86.6484375" y2="5" style="visibility: inherit;" fill="rgb(0, 0, 0)" stroke="rgb(204, 204, 204)" stroke-width="1px"></line><line x1="115.53125" y1="0" x2="115.53125" y2="5" style="visibility: inherit;" fill="rgb(0, 0, 0)" stroke="rgb(204, 204, 204)" stroke-width="1px"></line><line x1="144.4140625" y1="0" x2="144.4140625" y2="5" style="visibility: inherit;" fill="rgb(0, 0, 0)" stroke="rgb(204, 204, 204)" stroke-width="1px"></line><line x1="173.296875" y1="0" x2="173.296875" y2="5" style="visibility: inherit;" fill="rgb(0, 0, 0)" stroke="rgb(204, 204, 204)" stroke-width="1px"></line><line x1="202.1796875" y1="0" x2="202.1796875" y2="5" style="visibility: inherit;" fill="rgb(0, 0, 0)" stroke="rgb(204, 204, 204)" stroke-width="1px"></line><line x1="231.0625" y1="0" x2="231.0625" y2="5" style="visibility: inherit;" fill="rgb(0, 0, 0)" stroke="rgb(204, 204, 204)" stroke-width="1px"></line><line x1="259.9453125" y1="0" x2="259.9453125" y2="5" style="visibility: inherit;" fill="rgb(0, 0, 0)" stroke="rgb(204, 204, 204)" stroke-width="1px"></line><line x1="288.828125" y1="0" x2="288.828125" y2="5" style="visibility: inherit;" fill="rgb(0, 0, 0)" stroke="rgb(204, 204, 204)" stroke-width="1px"></line></g><g transform="translate(0, 8)"><text x="0" y="0" dx="0em" dy="0.95em" style="text-anchor: middle; visibility: hidden; font-family: Roboto, sans-serif; font-size: 12px; font-weight: 200;" fill="rgb(33, 33, 33)" stroke="none" stroke-width="1px">-1k</text><text x="28.8828125" y="0" dx="0em" dy="0.95em" style="text-anchor: middle; visibility: inherit; font-family: Roboto, sans-serif; font-size: 12px; font-weight: 200;" fill="rgb(33, 33, 33)" stroke="none" stroke-width="1px">0</text><text x="57.765625" y="0" dx="0em" dy="0.95em" style="text-anchor: middle; visibility: inherit; font-family: Roboto, sans-serif; font-size: 12px; font-weight: 200;" fill="rgb(33, 33, 33)" stroke="none" stroke-width="1px">1k</text><text x="86.6484375" y="0" dx="0em" dy="0.95em" style="text-anchor: middle; visibility: inherit; font-family: Roboto, sans-serif; font-size: 12px; font-weight: 200;" fill="rgb(33, 33, 33)" stroke="none" stroke-width="1px">2k</text><text x="115.53125" y="0" dx="0em" dy="0.95em" style="text-anchor: middle; visibility: inherit; font-family: Roboto, sans-serif; font-size: 12px; font-weight: 200;" fill="rgb(33, 33, 33)" stroke="none" stroke-width="1px">3k</text><text x="144.4140625" y="0" dx="0em" dy="0.95em" style="text-anchor: middle; visibility: inherit; font-family: Roboto, sans-serif; font-size: 12px; font-weight: 200;" fill="rgb(33, 33, 33)" stroke="none" stroke-width="1px">4k</text><text x="173.296875" y="0" dx="0em" dy="0.95em" style="text-anchor: middle; visibility: inherit; font-family: Roboto, sans-serif; font-size: 12px; font-weight: 200;" fill="rgb(33, 33, 33)" stroke="none" stroke-width="1px">5k</text><text x="202.1796875" y="0" dx="0em" dy="0.95em" style="text-anchor: middle; visibility: inherit; font-family: Roboto, sans-serif; font-size: 12px; font-weight: 200;" fill="rgb(33, 33, 33)" stroke="none" stroke-width="1px">6k</text><text x="231.0625" y="0" dx="0em" dy="0.95em" style="text-anchor: middle; visibility: inherit; font-family: Roboto, sans-serif; font-size: 12px; font-weight: 200;" fill="rgb(33, 33, 33)" stroke="none" stroke-width="1px">7k</text><text x="259.9453125" y="0" dx="0em" dy="0.95em" style="text-anchor: middle; visibility: inherit; font-family: Roboto, sans-serif; font-size: 12px; font-weight: 200;" fill="rgb(33, 33, 33)" stroke="none" stroke-width="1px">8k</text><text x="288.828125" y="0" dx="0em" dy="0.95em" style="text-anchor: middle; visibility: hidden; font-family: Roboto, sans-serif; font-size: 12px; font-weight: 200;" fill="rgb(33, 33, 33)" stroke="none" stroke-width="1px">9k</text></g><line x1="0" y1="0" x2="288.828125" y2="0" fill="rgb(0, 0, 0)" stroke="rgb(204, 204, 204)" stroke-width="1px"></line></g></g></g></g></svg>