<svg viewBox="0 0 330 200" xmlns="http://www.w3.org/2000/svg"><g><g><g><g><g><line x1="41.171875" y1="155.99204455767486" x2="36.171875" y2="155.99204455767486" style="visibility: inherit;" fill="rgb(0, 0, 0)" stroke="rgb(204, 204, 204)" stroke-width="1px"></line><line x1="41.171875" y1="135.51430234159963" x2="36.171875" y2="135.51430234159963" style="visibility: inherit;" fill="rgb(0, 0, 0)" stroke="rgb(204, 204, 204)" stroke-width="1px"></line><line x1="41.171875" y1="118.78276867875621" x2="36.171875" y2="118.78276867875621" style="visibility: inherit;" fill="rgb(0, 0, 0)" stroke="rgb(204, 204, 204)" stroke-width="1px"></line><line x1="41.171875" y1="104.63645853291457" x2="36.171875" y2="104.63645853291457" style="visibility: inherit;" fill="rgb(0, 0, 0)" stroke="rgb(204, 204, 204)" stroke-width="1px"></line><line x1="41.171875" y1="92.38236729965213" x2="36.171875" y2="92.38236729965213" style="visibility: inherit;" fill="rgb(0, 0, 0)" stroke="rgb(204, 204, 204)" stroke-width="1px"></line><line x1="41.171875" y1="81.57349279983761" x2="36.171875" y2="81.57349279983761" style="visibility: inherit;" fill="rgb(0, 0, 0)" stroke="rgb(204, 204, 204)" stroke-width="1px"></line><line x1="41.171875" y1="71.90462508357692" x2="36.171875" y2="71.90462508357692" style="visibility: inherit;" fill="rgb(0, 0, 0)" stroke="rgb(204, 204, 204)" stroke-width="1px"></line><line x1="41.171875" y1="8.294947825554166" x2="36.171875" y2="8.294947825554166" style="visibility: inherit;" fill="rgb(0, 0, 0)" stroke="rgb(204, 204, 204)" stroke-width="1px"></line></g><g transform="translate(31.171875, 0)"><text x="0" y="155.99204455767486" dx="0em" dy="0.3em" style="text-anchor: end; visibility: inherit; font-family: Roboto, sans-serif; font-size: 12px; font-weight: 200;" fill="rgb(33, 33, 33)" stroke="none" stroke-width="1px">0.4</text><text x="0" y="135.51430234159963" dx="0em" dy="0.3em" style="text-anchor: end; visibility: hidden; font-family: Roboto, sans-serif; font-size: 12px; font-weight: 200;" fill="rgb(33, 33, 33)" stroke="none" stroke-width="1px">0.5</text><text x="0" y="118.78276867875621" dx="0em" dy="0.3em" style="text-anchor: end; visibility: hidden; font-family: Roboto, sans-serif; font-size: 12px; font-weight: 200;" fill="rgb(33, 33, 33)" stroke="none" stroke-width="1px">0.6</text><text x="0" y="104.63645853291457" dx="0em" dy="0.3em" style="text-anchor: end; visibility: inherit; font-family: Roboto, sans-serif; font-size: 12px; font-weight: 200;" fill="rgb(33, 33, 33)" stroke="none" stroke-width="1px">0.7</text><text x="0" y="92.38236729965213" dx="0em" dy="0.3em" style="text-anchor: end; visibility: hidden; font-family: Roboto, sans-serif; font-size: 12px; font-weight: 200;" fill="rgb(33, 33, 33)" stroke="none" stroke-width="1px">0.8</text><text x="0" y="81.57349279983761" dx="0em" dy="0.3em" style="text-anchor: end; visibility: hidden; font-family: Roboto, sans-serif; font-size: 12px; font-weight: 200;" fill="rgb(33, 33, 33)" stroke="none" stroke-width="1px">0.9</text><text x="0" y="71.90462508357692" dx="0em" dy="0.3em" style="text-anchor: end; visibility: inherit; font-family: Roboto, sans-serif; font-size: 12px; font-weight: 200;" fill="rgb(33, 33, 33)" stroke="none" stroke-width="1px">1</text><text x="0" y="8.294947825554166" dx="0em" dy="0.3em" style="text-anchor: end; visibility: hidden; font-family: Roboto, sans-serif; font-size: 12px; font-weight: 200;" fill="rgb(33, 33, 33)" stroke="none" stroke-width="1px">2</text></g><line x1="41.171875" y1="0" x2="41.171875" y2="177" fill="rgb(0, 0, 0)" stroke="rgb(204, 204, 204)" stroke-width="1px"></line></g></g><g transform="translate(41, 0)" clip-path="url(#clip_0)"><clipPath id="clip_0"><rect width="288" height="176"></rect></clipPath><g><g><g><line x1="0" y1="0" x2="0" y2="177" fill="rgb(0, 0, 0)" stroke="rgb(66, 66, 66)" stroke-width="1px" opacity="0.25"></line><line x1="36.103515625" y1="0" x2="36.103515625" y2="177" fill="rgb(0, 0, 0)" stroke="rgb(66, 66, 66)" stroke-width="1px" opacity="0.25"></line><line x1="72.20703125" y1="0" x2="72.20703125" y2="177" fill="rgb(0, 0, 0)" stroke="rgb(66, 66, 66)" stroke-width="1px" opacity="0.25"></line><line x1="108.310546875" y1="0" x2="108.310546875" y2="177" fill="rgb(0, 0, 0)" stroke="rgb(66, 66, 66)" stroke-width="1px" opacity="0.25"></line><line x1="144.4140625" y1="0" x2="144.4140625" y2="177" fill="rgb(0, 0, 0)" stroke="rgb(66, 66, 66)" stroke-width="1px" opacity="0.25"></line><line x1="180.517578125" y1="0" x2="180.517578125" y2="177" fill="rgb(0, 0, 0)" stroke="rgb(66, 66, 66)" stroke-width="1px" opacity="0.25"></line><line x1="216.62109375" y1="0" x2="216.62109375" y2="177" fill="rgb(0, 0, 0)" stroke="rgb(66, 66, 66)" stroke-width="1px" opacity="0.25"></line><line x1="252.724609375" y1="0" x2="252.724609375" y2="177" fill="rgb(0, 0, 0)" stroke="rgb(66, 66, 66)" stroke-width="1px" opacity="0.25"></line><line x1="288.828125" y1="0" x2="288.828125" y2="177" fill="rgb(0, 0, 0)" stroke="rgb(66, 66, 66)" stroke-width="1px" opacity="0.25"></line></g><g><line x1="0" y1="155.99204455767486" x2="288.828125" y2="155.99204455767486" fill="rgb(0, 0, 0)" stroke="rgb(66, 66, 66)" stroke-width="1px" opacity="0.25"></line><line x1="0" y1="135.51430234159963" x2="288.828125" y2="135.51430234159963" fill="rgb(0, 0, 0)" stroke="rgb(66, 66, 66)" stroke-width="1px" opacity="0.25"></line><line x1="0" y1="118.78276867875621" x2="288.828125" y2="118.78276867875621" fill="rgb(0, 0, 0)" stroke="rgb(66, 66, 66)" stroke-width="1px" opacity="0.25"></line><line x1="0" y1="104.63645853291457" x2="288.828125" y2="104.63645853291457" fill="rgb(0, 0, 0)" stroke="rgb(66, 66, 66)" stroke-width="1px" opacity="0.25"></line><line x1="0" y1="92.38236729965213" x2="288.828125" y2="92.38236729965213" fill="rgb(0, 0, 0)" stroke="rgb(66, 66, 66)" stroke-width="1px" opacity="0.25"></line><line x1="0" y1="81.57349279983761" x2="288.828125" y2="81.57349279983761" fill="rgb(0, 0, 0)" stroke="rgb(66, 66, 66)" stroke-width="1px" opacity="0.25"></line><line x1="0" y1="71.90462508357692" x2="288.828125" y2="71.90462508357692" fill="rgb(0, 0, 0)" stroke="rgb(66, 66, 66)" stroke-width="1px" opacity="0.25"></line><line x1="0" y1="8.294947825554166" x2="288.828125" y2="8.294947825554166" fill="rgb(0, 0, 0)" stroke="rgb(66, 66, 66)" stroke-width="1px" opacity="0.25"></line></g></g></g><g><g><line x1="36.103515625" y1="0" x2="36.103515625" y2="177" fill="rgb(0, 0, 0)" stroke="rgb(153, 153, 153)" stroke-width="1.5px"></line></g></g><g><g><g><g><g><path stroke="rgb(255, 112, 67)" stroke-width="2px" d="M40.86195898437499,-0.24257202707042724L43.244791015625,8.230085803073086L45.627623046875,14.791363084539693L48.010455078125005,20.334244025735817L50.393287109374995,25.285714285714274L52.776119140625,29.881143466849007L55.158951171875,34.1161410235536L57.54178320312501,38.11998803203479L59.924615234375,41.827258582050156L62.307447265625,45.289923113915115L64.690279296875,48.50704600667539L67.073111328125,51.34461687689627L69.455943359375,54.137069936905434L71.838775390625,56.878361921567276L74.221607421875,59.53417718655974L76.604439453125,62.09182158071923L78.987271484375,64.53868344525519L81.370103515625,66.84215880591319L83.752935546875,68.99788523333109L86.135767578125,71.20416022821041L88.518599609375,73.40697459562723L90.90143164062499,75.4065625759653L93.28426367187501,77.48311573043644L95.667095703125,79.48981298377069L98.049927734375,81.49404398257455L100.43275976562501,83.15698579136838L102.815591796875,84.93725243623776L105.198423828125,86.69715556979318L107.581255859375,88.5759747196103L109.964087890625,90.30701407617171L112.346919921875,92.02001181622418L114.729751953125,93.65501891787751L117.112583984375,95.43536609389878L119.495416015625,97.10434879926734L121.878248046875,98.74279577006543L124.261080078125,100.41666508993255L126.643912109375,101.8596781813056L129.026744140625,103.25782984792764L131.40957617187502,104.21672475260645L133.792408203125,105.85337391876233L136.175240234375,107.47774821724964L138.55807226562501,108.83810171179262L140.940904296875,109.96303659096094L143.323736328125,111.1041601484933L145.706568359375,112.49694272630657L148.089400390625,113.5807674010688L150.472232421875,114.68481556668597L152.85506445312498,115.98042701433364L155.237896484375,117.1388409756164L157.62072851562502,117.6404948649686L160.003560546875,118.83644478089413L162.386392578125,119.95975836312705L164.769224609375,121.13044891868226L167.152056640625,122.24731507167694L169.534888671875,122.99146760927364L171.917720703125,124.13919640444344L174.300552734375,125.13535606263805L176.683384765625,125.74247343509022L179.066216796875,126.82496158683705L181.449048828125,127.71463457297354L183.831880859375,128.3722532675812L186.214712890625,129.47813383765515L188.597544921875,130.13985751572633L190.980376953125,130.72667276278895L193.363208984375,131.79786368686865L195.746041015625,132.6642983388865L198.12887304687501,133.4587911503353L200.511705078125,134.37633532990912L202.894537109375,135.09951176445819L205.277369140625,135.4535125725635L207.660201171875,136.36040621978435L210.043033203125,136.81622114119045L212.425865234375,137.96453178483765L214.808697265625,138.57013645520692L217.191529296875,139.54858511528755L219.574361328125,139.43027019136986L221.957193359375,140.54662729679845L224.340025390625,141.53783840873527L226.722857421875,141.8654386429968L229.105689453125,142.4154477242054L231.488521484375,143.34504583241056L233.871353515625,144.2495739875743L236.254185546875,143.93715437374237L238.63701757812498,144.73336856915748L241.019849609375,145.83061034238625L243.402681640625,146.60303759014502L245.785513671875,147.4048353032533L248.168345703125,148.03417297313223L250.551177734375,148.76823763525186L252.934009765625,149.34480101539071L255.316841796875,149.28674219363813L257.699673828125,150.15198635944736L260.08250585937503,150.92984988375483L262.465337890625,151.71428571428572L264.848169921875,152.28660596763817L267.231001953125,152.7493424033943L269.613833984375,152.96558084727278L271.996666015625,153.61333302131118L274.379498046875,153.9900309834241" style="fill: none;" fill="none"></path></g></g></g></g><g opacity="0.2"><g><g><g><path stroke="rgb(255, 112, 67)" stroke-width="2px" d="M38.479126953125004,-13.350189167642439L40.86195898437499,8.62647370774558L43.244791015625,17.173074742888776L45.627623046875,23.160213750214712L48.010455078125005,28.114749417237594L50.393287109374995,32.60804743160411L52.776119140625,36.88024674883717L55.158951171875,40.66361467686499L57.54178320312501,44.363226675310635L59.924615234375,47.62412005241484L62.307447265625,50.707988134507396L64.690279296875,53.5357949329187L67.073111328125,55.762716572261894L69.455943359375,58.48601420164446L71.838775390625,61.14680727742209L74.221607421875,63.66583222040894L76.604439453125,66.06597591574896L78.987271484375,68.33517364232786L81.370103515625,70.40918022071246L83.752935546875,72.32929764887086L86.135767578125,74.61620477083846L88.518599609375,76.8135516955685L90.90143164062499,78.49004823636412L93.28426367187501,80.68877219235137L95.667095703125,82.58459738372073L98.049927734375,84.58492364022784L100.43275976562501,85.70929781716508L102.815591796875,87.67412877412323L105.198423828125,89.40195582255643L107.581255859375,91.46835526997512L109.964087890625,92.96637967587485L112.346919921875,94.65099622938752L114.729751953125,96.16348066931776L117.112583984375,98.17237203407086L119.495416015625,99.66615323657908L121.878248046875,101.25665605296628L124.261080078125,102.98614585959572L126.643912109375,104.06765547064977L129.026744140625,105.39582766057569L131.40957617187502,105.6741194088769L133.792408203125,108.36441278506048L136.175240234375,109.9695268221074L138.55807226562501,110.91720595489993L140.940904296875,111.67672508354427L143.323736328125,112.84290015059076L145.706568359375,114.62657115282938L148.089400390625,115.23088960450164L150.472232421875,116.36619910288458L152.85506445312498,117.95880024399864L155.237896484375,118.90434981322123L157.62072851562502,118.39815524008363L160.003560546875,120.66011068443233L162.386392578125,121.67093856642049L164.769224609375,122.91497206494388L167.152056640625,123.94852164838338L169.534888671875,124.11913451505272L171.917720703125,125.88816105463145L174.300552734375,126.65016878458806L176.683384765625,126.66074751009506L179.066216796875,128.47301842004103L181.449048828125,129.06552814067433L183.831880859375,129.36760255372977L186.214712890625,131.16235075879456L188.597544921875,131.14147654601322L190.980376953125,131.61399187221107L193.363208984375,133.42846562311337L195.746041015625,133.97948434842752L198.12887304687501,134.66357800419593L200.511705078125,135.77008548273176L202.894537109375,136.19507543723148L205.277369140625,135.98708745385878L207.660201171875,137.73777551214502L210.043033203125,137.50421687175762L212.425865234375,139.71439720342912L214.808697265625,139.48610349367058L217.191529296875,141.03610109224738L219.574361328125,139.25308332567363L221.957193359375,142.24704649607662L224.340025390625,143.0450229284209L226.722857421875,142.35904225073733L229.105689453125,143.24669195629883L231.488521484375,144.7573411363866L233.871353515625,145.6233057320231L236.254185546875,143.47051019810868L238.63701757812498,145.9407944317861L241.019849609375,147.50147064608382L243.402681640625,147.77400740673937L245.785513671875,148.6208219739955L248.168345703125,148.98634650698722L250.551177734375,149.88046306305716L252.934009765625,150.21649551196228L255.316841796875,149.19972277453584L257.699673828125,151.46534370923214L260.08250585937503,152.1091492671354L262.465337890625,152.903656979467L264.848169921875,153.1518349101796L267.231001953125,153.44785161828003L269.613833984375,153.29089689011474L271.996666015625,154.59361558165256L274.379498046875,154.55799317044486" style="fill: none;" fill="none"></path></g></g></g></g></g></g><g transform="translate(41, 177)" clip-path="url(#clip_1)"><clipPath id="clip_1"><rect width="288" height="22"></rect></clipPath><g><g><line x1="0" y1="0" x2="0" y2="5" style="visibility: inherit;" fill="rgb(0, 0, 0)" stroke="rgb(204, 204, 204)" stroke-width="1px"></line><line x1="36.103515625" y1="0" x2="36.103515625" y2="5" style="visibility: inherit;" fill="rgb(0, 0, 0)" stroke="rgb(204, 204, 204)" stroke-width="1px"></line><line x1="72.20703125" y1="0" x2="72.20703125" y2="5" style="visibility: inherit;" fill="rgb(0, 0, 0)" stroke="rgb(204, 204, 204)" stroke-width="1px"></line><line x1="108.310546875" y1="0" x2="108.310546875" y2="5" style="visibility: inherit;" fill="rgb(0, 0, 0)" stroke="rgb(204, 204, 204)" stroke-width="1px"></line><line x1="144.4140625" y1="0" x2="144.4140625" y2="5" style="visibility: inherit;" fill="rgb(0, 0, 0)" stroke="rgb(204, 204, 204)" stroke-width="1px"></line><line x1="180.517578125" y1="0" x2="180.517578125" y2="5" style="visibility: inherit;" fill="rgb(0, 0, 0)" stroke="rgb(204, 204, 204)" stroke-width="1px"></line><line x1="216.62109375" y1="0" x2="216.62109375" y2="5" style="visibility: inherit;" fill="rgb(0, 0, 0)" stroke="rgb(204, 204, 204)" stroke-width="1px"></line><line x1="252.724609375" y1="0" x2="252.724609375" y2="5" style="visibility: inherit;" fill="rgb(0, 0, 0)" stroke="rgb(204, 204, 204)" stroke-width="1px"></line><line x1="288.828125" y1="0" x2="288.828125" y2="5" style="visibility: inherit;" fill="rgb(0, 0, 0)" stroke="rgb(204, 204, 204)" stroke-width="1px"></line></g><g transform="translate(0, 8)"><text x="0" y="0" dx="0em" dy="0.95em" style="text-anchor: middle; visibility: hidden; font-family: Roboto, sans-serif; font-size: 12px; font-weight: 200;" fill="rgb(33, 33, 33)" stroke="none" stroke-width="1px">-5k</text><text x="36.103515625" y="0" dx="0em" dy="0.95em" style="text-anchor: middle; visibility: inherit; font-family: Roboto, sans-serif; font-size: 12px; font-weight: 200;" fill="rgb(33, 33, 33)" stroke="none" stroke-width="1px">0</text><text x="72.20703125" y="0" dx="0em" dy="0.95em" style="text-anchor: middle; visibility: inherit; font-family: Roboto, sans-serif; font-size: 12px; font-weight: 200;" fill="rgb(33, 33, 33)" stroke="none" stroke-width="1px">5k</text><text x="108.310546875" y="0" dx="0em" dy="0.95em" style="text-anchor: middle; visibility: inherit; font-family: Roboto, sans-serif; font-size: 12px; font-weight: 200;" fill="rgb(33, 33, 33)" stroke="none" stroke-width="1px">10k</text><text x="144.4140625" y="0" dx="0em" dy="0.95em" style="text-anchor: middle; visibility: inherit; font-family: Roboto, sans-serif; font-size: 12px; font-weight: 200;" fill="rgb(33, 33, 33)" stroke="none" stroke-width="1px">15k</text><text x="180.517578125" y="0" dx="0em" dy="0.95em" style="text-anchor: middle; visibility: inherit; font-family: Roboto, sans-serif; font-size: 12px; font-weight: 200;" fill="rgb(33, 33, 33)" stroke="none" stroke-width="1px">20k</text><text x="216.62109375" y="0" dx="0em" dy="0.95em" style="text-anchor: middle; visibility: inherit; font-family: Roboto, sans-serif; font-size: 12px; font-weight: 200;" fill="rgb(33, 33, 33)" stroke="none" stroke-width="1px">25k</text><text x="252.724609375" y="0" dx="0em" dy="0.95em" style="text-anchor: middle; visibility: inherit; font-family: Roboto, sans-serif; font-size: 12px; font-weight: 200;" fill="rgb(33, 33, 33)" stroke="none" stroke-width="1px">30k</text><text x="288.828125" y="0" dx="0em" dy="0.95em" style="text-anchor: middle; visibility: hidden; font-family: Roboto, sans-serif; font-size: 12px; font-weight: 200;" fill="rgb(33, 33, 33)" stroke="none" stroke-width="1px">35k</text></g><line x1="0" y1="0" x2="288.828125" y2="0" fill="rgb(0, 0, 0)" stroke="rgb(204, 204, 204)" stroke-width="1px"></line></g></g></g></g></svg>