<svg viewBox="0 0 330 200" xmlns="http://www.w3.org/2000/svg"><g><g><g><g><g><line x1="41.171875" y1="155.99204455767486" x2="36.171875" y2="155.99204455767486" style="visibility: inherit;" fill="rgb(0, 0, 0)" stroke="rgb(204, 204, 204)" stroke-width="1px"></line><line x1="41.171875" y1="135.51430234159963" x2="36.171875" y2="135.51430234159963" style="visibility: inherit;" fill="rgb(0, 0, 0)" stroke="rgb(204, 204, 204)" stroke-width="1px"></line><line x1="41.171875" y1="118.78276867875621" x2="36.171875" y2="118.78276867875621" style="visibility: inherit;" fill="rgb(0, 0, 0)" stroke="rgb(204, 204, 204)" stroke-width="1px"></line><line x1="41.171875" y1="104.63645853291457" x2="36.171875" y2="104.63645853291457" style="visibility: inherit;" fill="rgb(0, 0, 0)" stroke="rgb(204, 204, 204)" stroke-width="1px"></line><line x1="41.171875" y1="92.38236729965213" x2="36.171875" y2="92.38236729965213" style="visibility: inherit;" fill="rgb(0, 0, 0)" stroke="rgb(204, 204, 204)" stroke-width="1px"></line><line x1="41.171875" y1="81.57349279983761" x2="36.171875" y2="81.57349279983761" style="visibility: inherit;" fill="rgb(0, 0, 0)" stroke="rgb(204, 204, 204)" stroke-width="1px"></line><line x1="41.171875" y1="71.90462508357692" x2="36.171875" y2="71.90462508357692" style="visibility: inherit;" fill="rgb(0, 0, 0)" stroke="rgb(204, 204, 204)" stroke-width="1px"></line><line x1="41.171875" y1="8.294947825554166" x2="36.171875" y2="8.294947825554166" style="visibility: inherit;" fill="rgb(0, 0, 0)" stroke="rgb(204, 204, 204)" stroke-width="1px"></line></g><g transform="translate(31.171875, 0)"><text x="0" y="155.99204455767486" dx="0em" dy="0.3em" style="text-anchor: end; visibility: inherit; font-family: Roboto, sans-serif; font-size: 12px; font-weight: 200;" fill="rgb(33, 33, 33)" stroke="none" stroke-width="1px">0.4</text><text x="0" y="135.51430234159963" dx="0em" dy="0.3em" style="text-anchor: end; visibility: hidden; font-family: Roboto, sans-serif; font-size: 12px; font-weight: 200;" fill="rgb(33, 33, 33)" stroke="none" stroke-width="1px">0.5</text><text x="0" y="118.78276867875621" dx="0em" dy="0.3em" style="text-anchor: end; visibility: hidden; font-family: Roboto, sans-serif; font-size: 12px; font-weight: 200;" fill="rgb(33, 33, 33)" stroke="none" stroke-width="1px">0.6</text><text x="0" y="104.63645853291457" dx="0em" dy="0.3em" style="text-anchor: end; visibility: inherit; font-family: Roboto, sans-serif; font-size: 12px; font-weight: 200;" fill="rgb(33, 33, 33)" stroke="none" stroke-width="1px">0.7</text><text x="0" y="92.38236729965213" dx="0em" dy="0.3em" style="text-anchor: end; visibility: hidden; font-family: Roboto, sans-serif; font-size: 12px; font-weight: 200;" fill="rgb(33, 33, 33)" stroke="none" stroke-width="1px">0.8</text><text x="0" y="81.57349279983761" dx="0em" dy="0.3em" style="text-anchor: end; visibility: hidden; font-family: Roboto, sans-serif; font-size: 12px; font-weight: 200;" fill="rgb(33, 33, 33)" stroke="none" stroke-width="1px">0.9</text><text x="0" y="71.90462508357692" dx="0em" dy="0.3em" style="text-anchor: end; visibility: inherit; font-family: Roboto, sans-serif; font-size: 12px; font-weight: 200;" fill="rgb(33, 33, 33)" stroke="none" stroke-width="1px">1</text><text x="0" y="8.294947825554166" dx="0em" dy="0.3em" style="text-anchor: end; visibility: hidden; font-family: Roboto, sans-serif; font-size: 12px; font-weight: 200;" fill="rgb(33, 33, 33)" stroke="none" stroke-width="1px">2</text></g><line x1="41.171875" y1="0" x2="41.171875" y2="177" fill="rgb(0, 0, 0)" stroke="rgb(204, 204, 204)" stroke-width="1px"></line></g></g><g transform="translate(41, 0)" clip-path="url(#clip_0)"><clipPath id="clip_0"><rect width="288" height="176"></rect></clipPath><g><g><g><line x1="0" y1="0" x2="0" y2="177" fill="rgb(0, 0, 0)" stroke="rgb(66, 66, 66)" stroke-width="1px" opacity="0.25"></line><line x1="28.8828125" y1="0" x2="28.8828125" y2="177" fill="rgb(0, 0, 0)" stroke="rgb(66, 66, 66)" stroke-width="1px" opacity="0.25"></line><line x1="57.765625" y1="0" x2="57.765625" y2="177" fill="rgb(0, 0, 0)" stroke="rgb(66, 66, 66)" stroke-width="1px" opacity="0.25"></line><line x1="86.6484375" y1="0" x2="86.6484375" y2="177" fill="rgb(0, 0, 0)" stroke="rgb(66, 66, 66)" stroke-width="1px" opacity="0.25"></line><line x1="115.53125" y1="0" x2="115.53125" y2="177" fill="rgb(0, 0, 0)" stroke="rgb(66, 66, 66)" stroke-width="1px" opacity="0.25"></line><line x1="144.4140625" y1="0" x2="144.4140625" y2="177" fill="rgb(0, 0, 0)" stroke="rgb(66, 66, 66)" stroke-width="1px" opacity="0.25"></line><line x1="173.296875" y1="0" x2="173.296875" y2="177" fill="rgb(0, 0, 0)" stroke="rgb(66, 66, 66)" stroke-width="1px" opacity="0.25"></line><line x1="202.1796875" y1="0" x2="202.1796875" y2="177" fill="rgb(0, 0, 0)" stroke="rgb(66, 66, 66)" stroke-width="1px" opacity="0.25"></line><line x1="231.0625" y1="0" x2="231.0625" y2="177" fill="rgb(0, 0, 0)" stroke="rgb(66, 66, 66)" stroke-width="1px" opacity="0.25"></line><line x1="259.9453125" y1="0" x2="259.9453125" y2="177" fill="rgb(0, 0, 0)" stroke="rgb(66, 66, 66)" stroke-width="1px" opacity="0.25"></line><line x1="288.828125" y1="0" x2="288.828125" y2="177" fill="rgb(0, 0, 0)" stroke="rgb(66, 66, 66)" stroke-width="1px" opacity="0.25"></line></g><g><line x1="0" y1="155.99204455767486" x2="288.828125" y2="155.99204455767486" fill="rgb(0, 0, 0)" stroke="rgb(66, 66, 66)" stroke-width="1px" opacity="0.25"></line><line x1="0" y1="135.51430234159963" x2="288.828125" y2="135.51430234159963" fill="rgb(0, 0, 0)" stroke="rgb(66, 66, 66)" stroke-width="1px" opacity="0.25"></line><line x1="0" y1="118.78276867875621" x2="288.828125" y2="118.78276867875621" fill="rgb(0, 0, 0)" stroke="rgb(66, 66, 66)" stroke-width="1px" opacity="0.25"></line><line x1="0" y1="104.63645853291457" x2="288.828125" y2="104.63645853291457" fill="rgb(0, 0, 0)" stroke="rgb(66, 66, 66)" stroke-width="1px" opacity="0.25"></line><line x1="0" y1="92.38236729965213" x2="288.828125" y2="92.38236729965213" fill="rgb(0, 0, 0)" stroke="rgb(66, 66, 66)" stroke-width="1px" opacity="0.25"></line><line x1="0" y1="81.57349279983761" x2="288.828125" y2="81.57349279983761" fill="rgb(0, 0, 0)" stroke="rgb(66, 66, 66)" stroke-width="1px" opacity="0.25"></line><line x1="0" y1="71.90462508357692" x2="288.828125" y2="71.90462508357692" fill="rgb(0, 0, 0)" stroke="rgb(66, 66, 66)" stroke-width="1px" opacity="0.25"></line><line x1="0" y1="8.294947825554166" x2="288.828125" y2="8.294947825554166" fill="rgb(0, 0, 0)" stroke="rgb(66, 66, 66)" stroke-width="1px" opacity="0.25"></line></g></g></g><g><g><line x1="28.8828125" y1="0" x2="28.8828125" y2="177" fill="rgb(0, 0, 0)" stroke="rgb(153, 153, 153)" stroke-width="1.5px"></line></g></g><g><g><g><g><g><path stroke="rgb(0, 119, 187)" stroke-width="2px" d="M42.8909765625,-2.213529280006131L45.230484374999996,0.9435001756030694L47.569992187500006,3.6206756361907297L49.9095,5.947861049852974L52.249007812500004,8.003890706793442L54.588515625,9.849725268283857L56.9280234375,11.525172789776894L59.26753125,13.06709405374972L61.6070390625,14.502185658390543L63.946546875,15.846490535809032L66.2860546875,17.103543506176717L68.6255625,18.27290813590929L70.9650703125,19.347572257276774L73.304578125,20.36751152332697L75.64408593750001,21.15938454533661L77.98359375000001,21.97611488717414L80.3231015625,22.717062068437638L82.662609375,23.393262196068527L85.0021171875,23.705387269763694L87.34162500000001,24.07570327079302L89.6811328125,24.47623572681667L92.020640625,24.83761137276347L94.3601484375,25.37842058525166L96.69965624999999,25.73367701363959L99.03916406249999,26.375241593541197L101.378671875,26.80148172445431L103.7181796875,27.440289190019417L106.05768750000001,27.915590286802438L108.3971953125,28.42317927865739L110.736703125,28.773471703196325L113.07621093750001,29.211671391149896L115.41571875,29.655826156900797L117.7552265625,29.97259191596008L120.094734375,30.31105291130998L122.4342421875,30.509275630335104L124.77374999999999,31.033792117312593L127.1132578125,31.44997260954369L129.45276562499998,31.498749168176847L131.7922734375,31.764341706656243L134.13178125,32.235149311877485L136.4712890625,32.51949277906066L138.810796875,32.770804468435195L141.1503046875,33.16873812227359L143.4898125,33.40166140002374L145.82932031250002,33.71845574926943L148.168828125,34.07850601037166L150.5083359375,34.34583659678292L152.84784375,34.49074446821367L155.1873515625,34.89811801617227L157.526859375,35.1068316409958L159.8663671875,35.1262799573421L162.205875,35.57798325798274L164.5453828125,35.92044892238135L166.884890625,36.02356754904697L169.22439843749999,36.32196364020856L171.56390625,36.603674397932075L173.9034140625,36.75910176428383L176.24292187499998,37.067306219616896L178.5824296875,37.252214016177014L180.92193749999998,37.45369232026407L183.26144531249997,37.776957497950185L185.600953125,37.913979532929275L187.94046093749998,38.056911297799445L190.27996875000002,38.37711679203113L192.6194765625,38.61910398041249L194.958984375,38.82526634332167L197.29849218750002,39.08886997604588L199.638,39.13031519621508L201.97750781250002,39.23475398075976L204.317015625,39.55867952289186L206.6565234375,39.81831745485635L208.99603125000002,40.0593104123524L211.3355390625,40.31050648068983L213.675046875,40.504576867632196L216.0145546875,40.59333212450079L218.3540625,40.594319630411476L220.69357031250001,40.79658139394964L223.033078125,40.930079394958476L225.3725859375,41.222040080032166L227.71209375,41.409442197104276L230.0516015625,41.54817954662139L232.39110937499998,41.7530539470673L234.7306171875,41.9528079191917L237.070125,41.584275804947175L239.40963281249998,41.73701133012298L241.749140625,42.05888802930821L244.08864843749998,42.34743074812782L246.42815625,42.58264331713074L248.7676640625,42.78807817738704L251.10717187499998,42.967893090998345L253.4466796875,43.14588908301907L255.7861875,43.19682786483918L258.1256953125,43.38808154219753L260.465203125,43.55652882455898L262.80471093750003,43.6778546826244" style="fill: none;" fill="none"></path></g></g></g></g><g opacity="0.2"><g><g><g><path stroke="rgb(0, 119, 187)" stroke-width="2px" d="M38.2119609375,-3.019620325179452L40.55146875,0.5075721876417756L42.8909765625,3.313821219907619L45.230484374999996,5.655587855446818L47.569992187500006,7.669535337430743L49.9095,9.491439342606517L52.249007812500004,11.144442280136388L54.588515625,12.67257274821962L56.9280234375,14.087670481144972L59.26753125,15.424459046298105L61.6070390625,16.69489768251141L63.946546875,17.898980254475934L66.2860546875,19.02109896230646L68.6255625,20.054869573356644L70.9650703125,20.98326051301624L73.304578125,21.918836278093952L75.64408593750001,22.360081658197373L77.98359375000001,23.214957570950034L80.3231015625,23.8397972989313L82.662609375,24.41698393205303L85.0021171875,24.17557072356025L87.34162500000001,24.633991657283307L89.6811328125,25.080329659259537L92.020640625,25.382356218625947L94.3601484375,26.195656668605093L96.69965624999999,26.269153332833902L99.03916406249999,27.346077082028746L101.378671875,27.44457696075979L103.7181796875,28.406916091023543L106.05768750000001,28.633189732422952L108.3971953125,29.18986601616869L110.736703125,29.301430218145757L113.07621093750001,29.872919331575016L115.41571875,30.32611511846843L117.7552265625,30.449800158453975L120.094734375,30.821096540497702L122.4342421875,30.807414833268982L124.77374999999999,31.826231153555714L127.1132578125,32.0778037790735L129.45276562499998,31.571962650593363L131.7922734375,32.16417733610506L134.13178125,32.94592081097815L136.4712890625,32.94766675950746L138.810796875,33.14906714682712L141.1503046875,33.76889280566873L143.4898125,33.75215856573381L145.82932031250002,34.19570725266071L148.168828125,34.62124402011945L150.5083359375,34.74829833350905L152.84784375,34.70853621057114L155.1873515625,35.51258923738714L157.526859375,35.42079481726026L159.8663671875,35.15546016205386L162.205875,36.259734558017804L164.5453828125,36.43655568826565L166.884890625,36.17846307409007L169.22439843749999,36.77138494121094L171.56390625,37.02786867687638L173.9034140625,36.9927375123072L176.24292187499998,37.531562439146576L178.5824296875,37.530276169880864L180.92193749999998,37.756741604662814L183.26144531249997,38.26400046039621L185.600953125,38.11989695585974L187.94046093749998,38.271727222190265L190.27996875000002,38.85952971910417L192.6194765625,38.98328541858935L194.958984375,39.13538090247661L197.29849218750002,39.485700617511746L199.638,39.192518143197745L201.97750781250002,39.391635353759995L204.317015625,40.04672182613327L206.6565234375,40.20915690600962L208.99603125000002,40.42199064114443L211.3355390625,40.68859453392568L213.675046875,40.79645414847105L216.0145546875,40.726626167921644L218.3540625,40.595800909202126L220.69357031250001,41.100812358899134L223.033078125,41.13069123140478L225.3725859375,41.66173014571229L227.71209375,41.69126488292804L230.0516015625,41.756679634946316L232.39110937499998,42.06122569734992L234.7306171875,42.25325650777965L237.070125,41.034237806291515L239.40963281249998,41.96659231069986L241.749140625,42.54382984247335L244.08864843749998,42.78195306710241L246.42815625,42.93659642857879L248.7676640625,43.097095336986136L251.10717187499998,43.23827781725135L253.4466796875,43.4135320773062L255.7861875,43.2732890920679L258.1256953125,43.675711489749055L260.465203125,43.80978090850797L262.80471093750003,43.86014475413012" style="fill: none;" fill="none"></path></g></g></g></g></g></g><g transform="translate(41, 177)" clip-path="url(#clip_1)"><clipPath id="clip_1"><rect width="288" height="22"></rect></clipPath><g><g><line x1="0" y1="0" x2="0" y2="5" style="visibility: inherit;" fill="rgb(0, 0, 0)" stroke="rgb(204, 204, 204)" stroke-width="1px"></line><line x1="28.8828125" y1="0" x2="28.8828125" y2="5" style="visibility: inherit;" fill="rgb(0, 0, 0)" stroke="rgb(204, 204, 204)" stroke-width="1px"></line><line x1="57.765625" y1="0" x2="57.765625" y2="5" style="visibility: inherit;" fill="rgb(0, 0, 0)" stroke="rgb(204, 204, 204)" stroke-width="1px"></line><line x1="86.6484375" y1="0" x2="86.6484375" y2="5" style="visibility: inherit;" fill="rgb(0, 0, 0)" stroke="rgb(204, 204, 204)" stroke-width="1px"></line><line x1="115.53125" y1="0" x2="115.53125" y2="5" style="visibility: inherit;" fill="rgb(0, 0, 0)" stroke="rgb(204, 204, 204)" stroke-width="1px"></line><line x1="144.4140625" y1="0" x2="144.4140625" y2="5" style="visibility: inherit;" fill="rgb(0, 0, 0)" stroke="rgb(204, 204, 204)" stroke-width="1px"></line><line x1="173.296875" y1="0" x2="173.296875" y2="5" style="visibility: inherit;" fill="rgb(0, 0, 0)" stroke="rgb(204, 204, 204)" stroke-width="1px"></line><line x1="202.1796875" y1="0" x2="202.1796875" y2="5" style="visibility: inherit;" fill="rgb(0, 0, 0)" stroke="rgb(204, 204, 204)" stroke-width="1px"></line><line x1="231.0625" y1="0" x2="231.0625" y2="5" style="visibility: inherit;" fill="rgb(0, 0, 0)" stroke="rgb(204, 204, 204)" stroke-width="1px"></line><line x1="259.9453125" y1="0" x2="259.9453125" y2="5" style="visibility: inherit;" fill="rgb(0, 0, 0)" stroke="rgb(204, 204, 204)" stroke-width="1px"></line><line x1="288.828125" y1="0" x2="288.828125" y2="5" style="visibility: inherit;" fill="rgb(0, 0, 0)" stroke="rgb(204, 204, 204)" stroke-width="1px"></line></g><g transform="translate(0, 8)"><text x="0" y="0" dx="0em" dy="0.95em" style="text-anchor: middle; visibility: hidden; font-family: Roboto, sans-serif; font-size: 12px; font-weight: 200;" fill="rgb(33, 33, 33)" stroke="none" stroke-width="1px">-1k</text><text x="28.8828125" y="0" dx="0em" dy="0.95em" style="text-anchor: middle; visibility: inherit; font-family: Roboto, sans-serif; font-size: 12px; font-weight: 200;" fill="rgb(33, 33, 33)" stroke="none" stroke-width="1px">0</text><text x="57.765625" y="0" dx="0em" dy="0.95em" style="text-anchor: middle; visibility: inherit; font-family: Roboto, sans-serif; font-size: 12px; font-weight: 200;" fill="rgb(33, 33, 33)" stroke="none" stroke-width="1px">1k</text><text x="86.6484375" y="0" dx="0em" dy="0.95em" style="text-anchor: middle; visibility: inherit; font-family: Roboto, sans-serif; font-size: 12px; font-weight: 200;" fill="rgb(33, 33, 33)" stroke="none" stroke-width="1px">2k</text><text x="115.53125" y="0" dx="0em" dy="0.95em" style="text-anchor: middle; visibility: inherit; font-family: Roboto, sans-serif; font-size: 12px; font-weight: 200;" fill="rgb(33, 33, 33)" stroke="none" stroke-width="1px">3k</text><text x="144.4140625" y="0" dx="0em" dy="0.95em" style="text-anchor: middle; visibility: inherit; font-family: Roboto, sans-serif; font-size: 12px; font-weight: 200;" fill="rgb(33, 33, 33)" stroke="none" stroke-width="1px">4k</text><text x="173.296875" y="0" dx="0em" dy="0.95em" style="text-anchor: middle; visibility: inherit; font-family: Roboto, sans-serif; font-size: 12px; font-weight: 200;" fill="rgb(33, 33, 33)" stroke="none" stroke-width="1px">5k</text><text x="202.1796875" y="0" dx="0em" dy="0.95em" style="text-anchor: middle; visibility: inherit; font-family: Roboto, sans-serif; font-size: 12px; font-weight: 200;" fill="rgb(33, 33, 33)" stroke="none" stroke-width="1px">6k</text><text x="231.0625" y="0" dx="0em" dy="0.95em" style="text-anchor: middle; visibility: inherit; font-family: Roboto, sans-serif; font-size: 12px; font-weight: 200;" fill="rgb(33, 33, 33)" stroke="none" stroke-width="1px">7k</text><text x="259.9453125" y="0" dx="0em" dy="0.95em" style="text-anchor: middle; visibility: inherit; font-family: Roboto, sans-serif; font-size: 12px; font-weight: 200;" fill="rgb(33, 33, 33)" stroke="none" stroke-width="1px">8k</text><text x="288.828125" y="0" dx="0em" dy="0.95em" style="text-anchor: middle; visibility: hidden; font-family: Roboto, sans-serif; font-size: 12px; font-weight: 200;" fill="rgb(33, 33, 33)" stroke="none" stroke-width="1px">9k</text></g><line x1="0" y1="0" x2="288.828125" y2="0" fill="rgb(0, 0, 0)" stroke="rgb(204, 204, 204)" stroke-width="1px"></line></g></g></g></g></svg>