<svg viewBox="0 0 330 200" xmlns="http://www.w3.org/2000/svg"><g><g><g><g><g><line x1="51.5625" y1="177" x2="46.5625" y2="177" style="visibility: inherit;" fill="rgb(0, 0, 0)" stroke="rgb(204, 204, 204)" stroke-width="1px"></line><line x1="51.5625" y1="159.3" x2="46.5625" y2="159.3" style="visibility: inherit;" fill="rgb(0, 0, 0)" stroke="rgb(204, 204, 204)" stroke-width="1px"></line><line x1="51.5625" y1="141.6" x2="46.5625" y2="141.6" style="visibility: inherit;" fill="rgb(0, 0, 0)" stroke="rgb(204, 204, 204)" stroke-width="1px"></line><line x1="51.5625" y1="123.89999999999999" x2="46.5625" y2="123.89999999999999" style="visibility: inherit;" fill="rgb(0, 0, 0)" stroke="rgb(204, 204, 204)" stroke-width="1px"></line><line x1="51.5625" y1="106.2" x2="46.5625" y2="106.2" style="visibility: inherit;" fill="rgb(0, 0, 0)" stroke="rgb(204, 204, 204)" stroke-width="1px"></line><line x1="51.5625" y1="88.5" x2="46.5625" y2="88.5" style="visibility: inherit;" fill="rgb(0, 0, 0)" stroke="rgb(204, 204, 204)" stroke-width="1px"></line><line x1="51.5625" y1="70.8" x2="46.5625" y2="70.8" style="visibility: inherit;" fill="rgb(0, 0, 0)" stroke="rgb(204, 204, 204)" stroke-width="1px"></line><line x1="51.5625" y1="53.10000000000001" x2="46.5625" y2="53.10000000000001" style="visibility: inherit;" fill="rgb(0, 0, 0)" stroke="rgb(204, 204, 204)" stroke-width="1px"></line><line x1="51.5625" y1="35.40000000000001" x2="46.5625" y2="35.40000000000001" style="visibility: inherit;" fill="rgb(0, 0, 0)" stroke="rgb(204, 204, 204)" stroke-width="1px"></line><line x1="51.5625" y1="17.699999999999996" x2="46.5625" y2="17.699999999999996" style="visibility: inherit;" fill="rgb(0, 0, 0)" stroke="rgb(204, 204, 204)" stroke-width="1px"></line><line x1="51.5625" y1="0" x2="46.5625" y2="0" style="visibility: inherit;" fill="rgb(0, 0, 0)" stroke="rgb(204, 204, 204)" stroke-width="1px"></line></g><g transform="translate(41.5625, 0)"><text x="0" y="177" dx="0em" dy="0.3em" style="text-anchor: end; visibility: hidden; font-family: Roboto, sans-serif; font-size: 12px; font-weight: 200;" fill="rgb(33, 33, 33)" stroke="none" stroke-width="1px">-0.2</text><text x="0" y="159.3" dx="0em" dy="0.3em" style="text-anchor: end; visibility: inherit; font-family: Roboto, sans-serif; font-size: 12px; font-weight: 200;" fill="rgb(33, 33, 33)" stroke="none" stroke-width="1px">0</text><text x="0" y="141.6" dx="0em" dy="0.3em" style="text-anchor: end; visibility: hidden; font-family: Roboto, sans-serif; font-size: 12px; font-weight: 200;" fill="rgb(33, 33, 33)" stroke="none" stroke-width="1px">0.2</text><text x="0" y="123.89999999999999" dx="0em" dy="0.3em" style="text-anchor: end; visibility: inherit; font-family: Roboto, sans-serif; font-size: 12px; font-weight: 200;" fill="rgb(33, 33, 33)" stroke="none" stroke-width="1px">0.4</text><text x="0" y="106.2" dx="0em" dy="0.3em" style="text-anchor: end; visibility: hidden; font-family: Roboto, sans-serif; font-size: 12px; font-weight: 200;" fill="rgb(33, 33, 33)" stroke="none" stroke-width="1px">0.6</text><text x="0" y="88.5" dx="0em" dy="0.3em" style="text-anchor: end; visibility: inherit; font-family: Roboto, sans-serif; font-size: 12px; font-weight: 200;" fill="rgb(33, 33, 33)" stroke="none" stroke-width="1px">0.8</text><text x="0" y="70.8" dx="0em" dy="0.3em" style="text-anchor: end; visibility: hidden; font-family: Roboto, sans-serif; font-size: 12px; font-weight: 200;" fill="rgb(33, 33, 33)" stroke="none" stroke-width="1px">1</text><text x="0" y="53.10000000000001" dx="0em" dy="0.3em" style="text-anchor: end; visibility: inherit; font-family: Roboto, sans-serif; font-size: 12px; font-weight: 200;" fill="rgb(33, 33, 33)" stroke="none" stroke-width="1px">1.2</text><text x="0" y="35.40000000000001" dx="0em" dy="0.3em" style="text-anchor: end; visibility: hidden; font-family: Roboto, sans-serif; font-size: 12px; font-weight: 200;" fill="rgb(33, 33, 33)" stroke="none" stroke-width="1px">1.4</text><text x="0" y="17.699999999999996" dx="0em" dy="0.3em" style="text-anchor: end; visibility: inherit; font-family: Roboto, sans-serif; font-size: 12px; font-weight: 200;" fill="rgb(33, 33, 33)" stroke="none" stroke-width="1px">1.6</text><text x="0" y="0" dx="0em" dy="0.3em" style="text-anchor: end; visibility: hidden; font-family: Roboto, sans-serif; font-size: 12px; font-weight: 200;" fill="rgb(33, 33, 33)" stroke="none" stroke-width="1px">1.8</text></g><line x1="51.5625" y1="0" x2="51.5625" y2="177" fill="rgb(0, 0, 0)" stroke="rgb(204, 204, 204)" stroke-width="1px"></line></g></g><g transform="translate(51, 0)" clip-path="url(#clip_0)"><clipPath id="clip_0"><rect width="278" height="177"></rect></clipPath><g><g><g><line x1="0" y1="0" x2="0" y2="177" fill="rgb(0, 0, 0)" stroke="rgb(66, 66, 66)" stroke-width="1px" opacity="0.25"></line><line x1="27.84375" y1="0" x2="27.84375" y2="177" fill="rgb(0, 0, 0)" stroke="rgb(66, 66, 66)" stroke-width="1px" opacity="0.25"></line><line x1="55.6875" y1="0" x2="55.6875" y2="177" fill="rgb(0, 0, 0)" stroke="rgb(66, 66, 66)" stroke-width="1px" opacity="0.25"></line><line x1="83.53125" y1="0" x2="83.53125" y2="177" fill="rgb(0, 0, 0)" stroke="rgb(66, 66, 66)" stroke-width="1px" opacity="0.25"></line><line x1="111.375" y1="0" x2="111.375" y2="177" fill="rgb(0, 0, 0)" stroke="rgb(66, 66, 66)" stroke-width="1px" opacity="0.25"></line><line x1="139.21875" y1="0" x2="139.21875" y2="177" fill="rgb(0, 0, 0)" stroke="rgb(66, 66, 66)" stroke-width="1px" opacity="0.25"></line><line x1="167.0625" y1="0" x2="167.0625" y2="177" fill="rgb(0, 0, 0)" stroke="rgb(66, 66, 66)" stroke-width="1px" opacity="0.25"></line><line x1="194.90625" y1="0" x2="194.90625" y2="177" fill="rgb(0, 0, 0)" stroke="rgb(66, 66, 66)" stroke-width="1px" opacity="0.25"></line><line x1="222.75" y1="0" x2="222.75" y2="177" fill="rgb(0, 0, 0)" stroke="rgb(66, 66, 66)" stroke-width="1px" opacity="0.25"></line><line x1="250.59375" y1="0" x2="250.59375" y2="177" fill="rgb(0, 0, 0)" stroke="rgb(66, 66, 66)" stroke-width="1px" opacity="0.25"></line><line x1="278.4375" y1="0" x2="278.4375" y2="177" fill="rgb(0, 0, 0)" stroke="rgb(66, 66, 66)" stroke-width="1px" opacity="0.25"></line></g><g><line x1="0" y1="177" x2="278.4375" y2="177" fill="rgb(0, 0, 0)" stroke="rgb(66, 66, 66)" stroke-width="1px" opacity="0.25"></line><line x1="0" y1="159.3" x2="278.4375" y2="159.3" fill="rgb(0, 0, 0)" stroke="rgb(66, 66, 66)" stroke-width="1px" opacity="0.25"></line><line x1="0" y1="141.6" x2="278.4375" y2="141.6" fill="rgb(0, 0, 0)" stroke="rgb(66, 66, 66)" stroke-width="1px" opacity="0.25"></line><line x1="0" y1="123.89999999999999" x2="278.4375" y2="123.89999999999999" fill="rgb(0, 0, 0)" stroke="rgb(66, 66, 66)" stroke-width="1px" opacity="0.25"></line><line x1="0" y1="106.2" x2="278.4375" y2="106.2" fill="rgb(0, 0, 0)" stroke="rgb(66, 66, 66)" stroke-width="1px" opacity="0.25"></line><line x1="0" y1="88.5" x2="278.4375" y2="88.5" fill="rgb(0, 0, 0)" stroke="rgb(66, 66, 66)" stroke-width="1px" opacity="0.25"></line><line x1="0" y1="70.8" x2="278.4375" y2="70.8" fill="rgb(0, 0, 0)" stroke="rgb(66, 66, 66)" stroke-width="1px" opacity="0.25"></line><line x1="0" y1="53.10000000000001" x2="278.4375" y2="53.10000000000001" fill="rgb(0, 0, 0)" stroke="rgb(66, 66, 66)" stroke-width="1px" opacity="0.25"></line><line x1="0" y1="35.40000000000001" x2="278.4375" y2="35.40000000000001" fill="rgb(0, 0, 0)" stroke="rgb(66, 66, 66)" stroke-width="1px" opacity="0.25"></line><line x1="0" y1="17.699999999999996" x2="278.4375" y2="17.699999999999996" fill="rgb(0, 0, 0)" stroke="rgb(66, 66, 66)" stroke-width="1px" opacity="0.25"></line><line x1="0" y1="0" x2="278.4375" y2="0" fill="rgb(0, 0, 0)" stroke="rgb(66, 66, 66)" stroke-width="1px" opacity="0.25"></line></g></g></g><g><g><line x1="0" y1="159.3" x2="278.4375" y2="159.3" fill="rgb(0, 0, 0)" stroke="rgb(153, 153, 153)" stroke-width="1.5px"></line></g></g><g><g><line x1="27.84375" y1="0" x2="27.84375" y2="177" fill="rgb(0, 0, 0)" stroke="rgb(153, 153, 153)" stroke-width="1.5px"></line></g></g><g><g><g><g><g><path stroke="rgb(187, 187, 187)" stroke-width="2px" d="M32.32659375,-8.430227015912548L34.5819375,19.740777806603205L36.837281250000004,42.28110637967203L39.092625,60.66089815059776L41.34796875,77.2797450420872L43.603312499999994,90.97780985101369L45.85865625,102.59410133475608L48.114000000000004,112.65552815067939L50.36934375,120.98274412043304L52.6246875,128.53391214300962L54.88003125,134.05205694701803L57.135374999999996,138.64196694023877L59.39071875,141.5507660663391L61.646062500000006,144.59129281654472L63.90140625,147.10642033327326L66.15675,149.50277867928386L68.41209375,151.17741845572408L70.6674375,152.8280343260744L72.92278125,154.09640193492757L75.17812500000001,155.1612159235758L77.43346875,156.00046725583385L79.6888125,156.66597989674858L81.94415625,157.18181938996216L84.1995,157.56915789390916L86.45484375,157.83689834323283L88.7101875,157.40890653046915L90.96553125,154.64919313332697L93.22087499999999,149.15838187525966L95.47621875,145.96577483639925L97.7315625,148.48667319730492L99.98690624999999,150.21781770694574L102.24225000000001,152.95471634490698L104.49759375000001,154.94268494843286L106.7529375,156.28317426593586L109.00828125000001,157.157870777563L111.263625,157.73235706229838L113.51896875,158.11352821945647L115.77431250000001,158.36963233701275L118.02965625,158.54511648945876L120.285,158.66834627138124L122.54034374999999,158.75740725102267L124.7956875,158.8238189648231L127.05103125,158.8749585554474L129.306375,158.91551641345472L131.56171874999998,158.94857623557849L133.81706250000002,158.9761729806354L136.07240625,158.99968568467605L138.32775,159.0200690207302L140.58309375000002,159.03799127031584L142.8384375,159.05394151151282L145.09378125,159.06826401260375L147.34912500000002,159.08123559935396L149.60446875,159.09306347934012L151.8598125,159.10391067425968L154.11515624999998,159.1138988253452L156.3705,159.12314407764148L158.62584375,159.13172419965727L160.88118749999998,159.13971376060317L163.13653125,159.14716989003938L165.391875,159.1541459711327L167.64721874999998,159.16068931895194L169.9025625,159.16683818433643L172.15790625,159.17262472845368L174.41324999999998,159.17807619761064L176.66859374999999,159.18322438548324L178.9239375,159.18809349080738L181.17928124999997,159.1927029822685L183.434625,159.1970724494734L185.68996875000002,159.20121916022117L187.9453125,159.20515621572432L190.20065625,159.20889916668744L192.45600000000002,159.21246231564334L194.71134375,159.21585528675055L196.9666875,159.21909181029244L199.22203125000001,159.22217982978012L201.477375,159.2251284013879L203.73271875,159.2279456437186L205.9880625,159.23063660926238L208.24340625,159.23321137865898L210.49875,159.23567439924395L212.75409375,159.23803114794993L215.0094375,159.24028862817087L217.26478125,159.2424527728061L219.520125,159.2445272034118L221.77546875,159.24651693854287L224.0308125,159.24842600518394L226.28615625,159.25025971666085L228.54149999999998,159.25201943119959L230.79684375,159.25370857033303L233.0521875,159.25533294645652L235.30753124999998,159.2568928109117L237.562875,159.2583927549913L239.81821875,159.25983577970686L242.07356249999998,159.26122348888265L244.32890625,159.26255929274805L246.58425000000003,159.26384500459844L248.83959375,159.2650825613581L251.09493750000001,159.26627392982687L253.35028125000002,159.26742233621195" style="fill: none;" fill="none"></path></g><g><path stroke="rgb(204, 51, 17)" stroke-width="2px" d="M37.0321875,55.44659500122071L46.24846875,101.39284635074436L55.464749999999995,122.64135911811373L64.68103125,134.67849754100556L73.89731250000001,141.59950519115L83.11359374999999,145.83639407759725L92.329875,149.417167814953L101.54615625000001,152.00323244621444L110.76243749999999,153.6656181506327L119.97871875,154.47316686043766L129.195,155.21868990001127L138.41128125,156.0305035987219L147.6275625,156.50344210197292L156.84384375000002,156.78715205669275L166.060125,157.33829576304674L175.27640624999998,157.5188122638699L184.4926875,157.89446354889878L193.70896875,158.10078314110504L202.92525,158.227532222741L212.14153125,157.97838730955678L221.35781250000002,158.0593642160907L230.57409374999997,158.12979883730023L239.79037499999998,158.24023913905594L249.00665625,158.35015876251137L258.2229375,158.63484434317127L267.43921875,158.8193262534906L276.6555,158.96253026375135L285.87178124999997,159.06823623906925" style="fill: none;" fill="none"></path></g></g></g></g><g opacity="0.2"><g><g><g><path stroke="rgb(187, 187, 187)" stroke-width="2px" d="M30.07125,-51.178659510612505L32.32659375,17.218832480907444L34.5819375,46.784942436218266L36.837281250000004,68.78853278160095L39.092625,84.65755428671837L41.34796875,100.26959307789802L43.603312499999994,110.56626169681549L45.85865625,119.53076583445072L48.114000000000004,127.49417837262153L50.36934375,133.34768934845926L52.6246875,139.7921756386757L54.88003125,142.29924465268851L57.135374999999996,145.51184507757426L59.39071875,145.9082661151886L61.646062500000006,149.14850891679527L63.90140625,150.8773377455771L66.15675,153.09630213975908L68.41209375,153.68895292952658L70.6674375,155.3037066768855L72.92278125,155.9988374143839L75.17812500000001,156.75837850961835L77.43346875,157.25931663829834L79.6888125,157.66423571873457L81.94415625,157.955572519172L84.1995,158.15016289679335L86.45484375,158.23850787542762L88.7101875,156.7669199064374L90.96553125,150.50962727442385L93.22087499999999,140.92217004597188L95.47621875,141.176866042614L97.7315625,152.26801990270616L99.98690624999999,152.8145341269672L102.24225000000001,157.0600639751181L104.49759375000001,157.92463771132753L106.7529375,158.29390818458052L109.00828125000001,158.46991552244873L111.263625,158.59408648051323L113.51896875,158.6852849516552L115.77431250000001,158.75378851192073L118.02965625,158.8083427175414L120.285,158.85319094401785L122.54034374999999,158.8909987203777L124.7956875,158.9234365354758L127.05103125,158.95166794136168L129.306375,158.9763532004552L131.56171874999998,158.998165968759L133.81706250000002,159.0175680982182L136.07240625,159.0349547407357L138.32775,159.05064402481077L140.58309375000002,159.06487464469393L142.8384375,159.0778668733081L145.09378125,159.08974776424003L147.34912500000002,159.10069297947922L149.60446875,159.11080529931934L151.8598125,159.12018146663905L154.11515624999998,159.12888105197345L156.3705,159.13701195608593L158.62584375,159.14459438268096L160.88118749999998,159.15169810202207L163.13653125,159.15835408419372L165.391875,159.16461009277265L167.64721874999998,159.1705043406808L169.9025625,159.17606148241322L172.15790625,159.18130454462954L174.41324999999998,159.18625340134605L176.66859374999999,159.19094666729217L178.9239375,159.19539714879357L181.17928124999997,159.1996172194602L183.434625,159.2036266502808L185.68996875000002,159.20743922634284L187.9453125,159.21106179897907L190.20065625,159.21451359313215L192.45600000000002,159.21780703907717L194.71134375,159.2209447434114L196.9666875,159.22394659560524L199.22203125000001,159.22681185901166L201.477375,159.22955125879963L203.73271875,159.23217150721467L205.9880625,159.23467305757805L208.24340625,159.23707353275387L210.49875,159.23936893012143L212.75409375,159.24156627100894L215.0094375,159.24367484850228L217.26478125,159.24569898975898L219.520125,159.24763884932037L221.77546875,159.24950154123945L224.0308125,159.2512896051456L226.28615625,159.25301028387622L228.54149999999998,159.2546590030077L230.79684375,159.2562422790332L233.0521875,159.25776951064182L235.30753124999998,159.25923260759447L237.562875,159.2606426711107L239.81821875,159.2620003167802L242.07356249999998,159.26330505264633L244.32890625,159.26456299854618L246.58425000000003,159.26577357237403L248.83959375,159.2669388964976L251.09493750000001,159.26806098253002L253.35028125000002,159.2691449457896" style="fill: none;" fill="none"></path></g><g><path stroke="rgb(204, 51, 17)" stroke-width="2px" d="M37.0321875,55.44659500122071L46.24846875,128.96059716045858L55.464749999999995,143.0399313747883L64.68103125,148.83417232632638L73.89731250000001,150.63557277917863L83.11359374999999,151.69753668755294L92.329875,154.5377315517515L101.54615625000001,155.77373950481416L110.76243749999999,156.1173141628504L119.97871875,155.67228257954122L129.195,156.33021262027324L138.41128125,157.24380629248918L147.6275625,157.2113056305796L156.84384375000002,157.21216117143632L166.060125,158.16436347384007L175.27640624999998,157.78945970088245L184.4926875,158.45778151340784L193.70896875,158.41021014489235L202.92525,158.41763653624804L212.14153125,157.60469271261246L221.35781250000002,158.18082513492556L230.57409374999997,158.23544845143334L239.79037499999998,158.4058974112384L249.00665625,158.51503689559178L258.2229375,159.06187069073786L267.43921875,159.09604833223858L276.6555,159.17733591272264L285.87178124999997,159.22679503976252" style="fill: none;" fill="none"></path></g></g></g></g></g></g><g transform="translate(51, 177)" clip-path="url(#clip_1)"><clipPath id="clip_1"><rect width="278" height="23"></rect></clipPath><g><g><line x1="0" y1="0" x2="0" y2="5" style="visibility: inherit;" fill="rgb(0, 0, 0)" stroke="rgb(204, 204, 204)" stroke-width="1px"></line><line x1="27.84375" y1="0" x2="27.84375" y2="5" style="visibility: inherit;" fill="rgb(0, 0, 0)" stroke="rgb(204, 204, 204)" stroke-width="1px"></line><line x1="55.6875" y1="0" x2="55.6875" y2="5" style="visibility: inherit;" fill="rgb(0, 0, 0)" stroke="rgb(204, 204, 204)" stroke-width="1px"></line><line x1="83.53125" y1="0" x2="83.53125" y2="5" style="visibility: inherit;" fill="rgb(0, 0, 0)" stroke="rgb(204, 204, 204)" stroke-width="1px"></line><line x1="111.375" y1="0" x2="111.375" y2="5" style="visibility: inherit;" fill="rgb(0, 0, 0)" stroke="rgb(204, 204, 204)" stroke-width="1px"></line><line x1="139.21875" y1="0" x2="139.21875" y2="5" style="visibility: inherit;" fill="rgb(0, 0, 0)" stroke="rgb(204, 204, 204)" stroke-width="1px"></line><line x1="167.0625" y1="0" x2="167.0625" y2="5" style="visibility: inherit;" fill="rgb(0, 0, 0)" stroke="rgb(204, 204, 204)" stroke-width="1px"></line><line x1="194.90625" y1="0" x2="194.90625" y2="5" style="visibility: inherit;" fill="rgb(0, 0, 0)" stroke="rgb(204, 204, 204)" stroke-width="1px"></line><line x1="222.75" y1="0" x2="222.75" y2="5" style="visibility: inherit;" fill="rgb(0, 0, 0)" stroke="rgb(204, 204, 204)" stroke-width="1px"></line><line x1="250.59375" y1="0" x2="250.59375" y2="5" style="visibility: inherit;" fill="rgb(0, 0, 0)" stroke="rgb(204, 204, 204)" stroke-width="1px"></line><line x1="278.4375" y1="0" x2="278.4375" y2="5" style="visibility: inherit;" fill="rgb(0, 0, 0)" stroke="rgb(204, 204, 204)" stroke-width="1px"></line></g><g transform="translate(0, 8)"><text x="0" y="0" dx="0em" dy="0.95em" style="text-anchor: middle; visibility: hidden; font-family: Roboto, sans-serif; font-size: 12px; font-weight: 200;" fill="rgb(33, 33, 33)" stroke="none" stroke-width="1px">-1k</text><text x="27.84375" y="0" dx="0em" dy="0.95em" style="text-anchor: middle; visibility: inherit; font-family: Roboto, sans-serif; font-size: 12px; font-weight: 200;" fill="rgb(33, 33, 33)" stroke="none" stroke-width="1px">0</text><text x="55.6875" y="0" dx="0em" dy="0.95em" style="text-anchor: middle; visibility: inherit; font-family: Roboto, sans-serif; font-size: 12px; font-weight: 200;" fill="rgb(33, 33, 33)" stroke="none" stroke-width="1px">1k</text><text x="83.53125" y="0" dx="0em" dy="0.95em" style="text-anchor: middle; visibility: inherit; font-family: Roboto, sans-serif; font-size: 12px; font-weight: 200;" fill="rgb(33, 33, 33)" stroke="none" stroke-width="1px">2k</text><text x="111.375" y="0" dx="0em" dy="0.95em" style="text-anchor: middle; visibility: inherit; font-family: Roboto, sans-serif; font-size: 12px; font-weight: 200;" fill="rgb(33, 33, 33)" stroke="none" stroke-width="1px">3k</text><text x="139.21875" y="0" dx="0em" dy="0.95em" style="text-anchor: middle; visibility: inherit; font-family: Roboto, sans-serif; font-size: 12px; font-weight: 200;" fill="rgb(33, 33, 33)" stroke="none" stroke-width="1px">4k</text><text x="167.0625" y="0" dx="0em" dy="0.95em" style="text-anchor: middle; visibility: inherit; font-family: Roboto, sans-serif; font-size: 12px; font-weight: 200;" fill="rgb(33, 33, 33)" stroke="none" stroke-width="1px">5k</text><text x="194.90625" y="0" dx="0em" dy="0.95em" style="text-anchor: middle; visibility: inherit; font-family: Roboto, sans-serif; font-size: 12px; font-weight: 200;" fill="rgb(33, 33, 33)" stroke="none" stroke-width="1px">6k</text><text x="222.75" y="0" dx="0em" dy="0.95em" style="text-anchor: middle; visibility: inherit; font-family: Roboto, sans-serif; font-size: 12px; font-weight: 200;" fill="rgb(33, 33, 33)" stroke="none" stroke-width="1px">7k</text><text x="250.59375" y="0" dx="0em" dy="0.95em" style="text-anchor: middle; visibility: inherit; font-family: Roboto, sans-serif; font-size: 12px; font-weight: 200;" fill="rgb(33, 33, 33)" stroke="none" stroke-width="1px">8k</text><text x="278.4375" y="0" dx="0em" dy="0.95em" style="text-anchor: middle; visibility: hidden; font-family: Roboto, sans-serif; font-size: 12px; font-weight: 200;" fill="rgb(33, 33, 33)" stroke="none" stroke-width="1px">9k</text></g><line x1="0" y1="0" x2="278.4375" y2="0" fill="rgb(0, 0, 0)" stroke="rgb(204, 204, 204)" stroke-width="1px"></line></g></g></g></g></svg>