<svg viewBox="0 0 330 200" xmlns="http://www.w3.org/2000/svg"><g><g><g><g><g><line x1="51.5625" y1="177" x2="46.5625" y2="177" style="visibility: inherit;" fill="rgb(0, 0, 0)" stroke="rgb(204, 204, 204)" stroke-width="1px"></line><line x1="51.5625" y1="159.3" x2="46.5625" y2="159.3" style="visibility: inherit;" fill="rgb(0, 0, 0)" stroke="rgb(204, 204, 204)" stroke-width="1px"></line><line x1="51.5625" y1="141.6" x2="46.5625" y2="141.6" style="visibility: inherit;" fill="rgb(0, 0, 0)" stroke="rgb(204, 204, 204)" stroke-width="1px"></line><line x1="51.5625" y1="123.89999999999999" x2="46.5625" y2="123.89999999999999" style="visibility: inherit;" fill="rgb(0, 0, 0)" stroke="rgb(204, 204, 204)" stroke-width="1px"></line><line x1="51.5625" y1="106.2" x2="46.5625" y2="106.2" style="visibility: inherit;" fill="rgb(0, 0, 0)" stroke="rgb(204, 204, 204)" stroke-width="1px"></line><line x1="51.5625" y1="88.5" x2="46.5625" y2="88.5" style="visibility: inherit;" fill="rgb(0, 0, 0)" stroke="rgb(204, 204, 204)" stroke-width="1px"></line><line x1="51.5625" y1="70.8" x2="46.5625" y2="70.8" style="visibility: inherit;" fill="rgb(0, 0, 0)" stroke="rgb(204, 204, 204)" stroke-width="1px"></line><line x1="51.5625" y1="53.10000000000001" x2="46.5625" y2="53.10000000000001" style="visibility: inherit;" fill="rgb(0, 0, 0)" stroke="rgb(204, 204, 204)" stroke-width="1px"></line><line x1="51.5625" y1="35.40000000000001" x2="46.5625" y2="35.40000000000001" style="visibility: inherit;" fill="rgb(0, 0, 0)" stroke="rgb(204, 204, 204)" stroke-width="1px"></line><line x1="51.5625" y1="17.699999999999996" x2="46.5625" y2="17.699999999999996" style="visibility: inherit;" fill="rgb(0, 0, 0)" stroke="rgb(204, 204, 204)" stroke-width="1px"></line><line x1="51.5625" y1="0" x2="46.5625" y2="0" style="visibility: inherit;" fill="rgb(0, 0, 0)" stroke="rgb(204, 204, 204)" stroke-width="1px"></line></g><g transform="translate(41.5625, 0)"><text x="0" y="177" dx="0em" dy="0.3em" style="text-anchor: end; visibility: hidden; font-family: Roboto, sans-serif; font-size: 12px; font-weight: 200;" fill="rgb(33, 33, 33)" stroke="none" stroke-width="1px">-0.2</text><text x="0" y="159.3" dx="0em" dy="0.3em" style="text-anchor: end; visibility: inherit; font-family: Roboto, sans-serif; font-size: 12px; font-weight: 200;" fill="rgb(33, 33, 33)" stroke="none" stroke-width="1px">0</text><text x="0" y="141.6" dx="0em" dy="0.3em" style="text-anchor: end; visibility: hidden; font-family: Roboto, sans-serif; font-size: 12px; font-weight: 200;" fill="rgb(33, 33, 33)" stroke="none" stroke-width="1px">0.2</text><text x="0" y="123.89999999999999" dx="0em" dy="0.3em" style="text-anchor: end; visibility: inherit; font-family: Roboto, sans-serif; font-size: 12px; font-weight: 200;" fill="rgb(33, 33, 33)" stroke="none" stroke-width="1px">0.4</text><text x="0" y="106.2" dx="0em" dy="0.3em" style="text-anchor: end; visibility: hidden; font-family: Roboto, sans-serif; font-size: 12px; font-weight: 200;" fill="rgb(33, 33, 33)" stroke="none" stroke-width="1px">0.6</text><text x="0" y="88.5" dx="0em" dy="0.3em" style="text-anchor: end; visibility: inherit; font-family: Roboto, sans-serif; font-size: 12px; font-weight: 200;" fill="rgb(33, 33, 33)" stroke="none" stroke-width="1px">0.8</text><text x="0" y="70.8" dx="0em" dy="0.3em" style="text-anchor: end; visibility: hidden; font-family: Roboto, sans-serif; font-size: 12px; font-weight: 200;" fill="rgb(33, 33, 33)" stroke="none" stroke-width="1px">1</text><text x="0" y="53.10000000000001" dx="0em" dy="0.3em" style="text-anchor: end; visibility: inherit; font-family: Roboto, sans-serif; font-size: 12px; font-weight: 200;" fill="rgb(33, 33, 33)" stroke="none" stroke-width="1px">1.2</text><text x="0" y="35.40000000000001" dx="0em" dy="0.3em" style="text-anchor: end; visibility: hidden; font-family: Roboto, sans-serif; font-size: 12px; font-weight: 200;" fill="rgb(33, 33, 33)" stroke="none" stroke-width="1px">1.4</text><text x="0" y="17.699999999999996" dx="0em" dy="0.3em" style="text-anchor: end; visibility: inherit; font-family: Roboto, sans-serif; font-size: 12px; font-weight: 200;" fill="rgb(33, 33, 33)" stroke="none" stroke-width="1px">1.6</text><text x="0" y="0" dx="0em" dy="0.3em" style="text-anchor: end; visibility: hidden; font-family: Roboto, sans-serif; font-size: 12px; font-weight: 200;" fill="rgb(33, 33, 33)" stroke="none" stroke-width="1px">1.8</text></g><line x1="51.5625" y1="0" x2="51.5625" y2="177" fill="rgb(0, 0, 0)" stroke="rgb(204, 204, 204)" stroke-width="1px"></line></g></g><g transform="translate(51, 0)" clip-path="url(#clip_0)"><clipPath id="clip_0"><rect width="278" height="177"></rect></clipPath><g><g><g><line x1="0" y1="0" x2="0" y2="177" fill="rgb(0, 0, 0)" stroke="rgb(66, 66, 66)" stroke-width="1px" opacity="0.25"></line><line x1="27.84375" y1="0" x2="27.84375" y2="177" fill="rgb(0, 0, 0)" stroke="rgb(66, 66, 66)" stroke-width="1px" opacity="0.25"></line><line x1="55.6875" y1="0" x2="55.6875" y2="177" fill="rgb(0, 0, 0)" stroke="rgb(66, 66, 66)" stroke-width="1px" opacity="0.25"></line><line x1="83.53125" y1="0" x2="83.53125" y2="177" fill="rgb(0, 0, 0)" stroke="rgb(66, 66, 66)" stroke-width="1px" opacity="0.25"></line><line x1="111.375" y1="0" x2="111.375" y2="177" fill="rgb(0, 0, 0)" stroke="rgb(66, 66, 66)" stroke-width="1px" opacity="0.25"></line><line x1="139.21875" y1="0" x2="139.21875" y2="177" fill="rgb(0, 0, 0)" stroke="rgb(66, 66, 66)" stroke-width="1px" opacity="0.25"></line><line x1="167.0625" y1="0" x2="167.0625" y2="177" fill="rgb(0, 0, 0)" stroke="rgb(66, 66, 66)" stroke-width="1px" opacity="0.25"></line><line x1="194.90625" y1="0" x2="194.90625" y2="177" fill="rgb(0, 0, 0)" stroke="rgb(66, 66, 66)" stroke-width="1px" opacity="0.25"></line><line x1="222.75" y1="0" x2="222.75" y2="177" fill="rgb(0, 0, 0)" stroke="rgb(66, 66, 66)" stroke-width="1px" opacity="0.25"></line><line x1="250.59375" y1="0" x2="250.59375" y2="177" fill="rgb(0, 0, 0)" stroke="rgb(66, 66, 66)" stroke-width="1px" opacity="0.25"></line><line x1="278.4375" y1="0" x2="278.4375" y2="177" fill="rgb(0, 0, 0)" stroke="rgb(66, 66, 66)" stroke-width="1px" opacity="0.25"></line></g><g><line x1="0" y1="177" x2="278.4375" y2="177" fill="rgb(0, 0, 0)" stroke="rgb(66, 66, 66)" stroke-width="1px" opacity="0.25"></line><line x1="0" y1="159.3" x2="278.4375" y2="159.3" fill="rgb(0, 0, 0)" stroke="rgb(66, 66, 66)" stroke-width="1px" opacity="0.25"></line><line x1="0" y1="141.6" x2="278.4375" y2="141.6" fill="rgb(0, 0, 0)" stroke="rgb(66, 66, 66)" stroke-width="1px" opacity="0.25"></line><line x1="0" y1="123.89999999999999" x2="278.4375" y2="123.89999999999999" fill="rgb(0, 0, 0)" stroke="rgb(66, 66, 66)" stroke-width="1px" opacity="0.25"></line><line x1="0" y1="106.2" x2="278.4375" y2="106.2" fill="rgb(0, 0, 0)" stroke="rgb(66, 66, 66)" stroke-width="1px" opacity="0.25"></line><line x1="0" y1="88.5" x2="278.4375" y2="88.5" fill="rgb(0, 0, 0)" stroke="rgb(66, 66, 66)" stroke-width="1px" opacity="0.25"></line><line x1="0" y1="70.8" x2="278.4375" y2="70.8" fill="rgb(0, 0, 0)" stroke="rgb(66, 66, 66)" stroke-width="1px" opacity="0.25"></line><line x1="0" y1="53.10000000000001" x2="278.4375" y2="53.10000000000001" fill="rgb(0, 0, 0)" stroke="rgb(66, 66, 66)" stroke-width="1px" opacity="0.25"></line><line x1="0" y1="35.40000000000001" x2="278.4375" y2="35.40000000000001" fill="rgb(0, 0, 0)" stroke="rgb(66, 66, 66)" stroke-width="1px" opacity="0.25"></line><line x1="0" y1="17.699999999999996" x2="278.4375" y2="17.699999999999996" fill="rgb(0, 0, 0)" stroke="rgb(66, 66, 66)" stroke-width="1px" opacity="0.25"></line><line x1="0" y1="0" x2="278.4375" y2="0" fill="rgb(0, 0, 0)" stroke="rgb(66, 66, 66)" stroke-width="1px" opacity="0.25"></line></g></g></g><g><g><line x1="0" y1="159.3" x2="278.4375" y2="159.3" fill="rgb(0, 0, 0)" stroke="rgb(153, 153, 153)" stroke-width="1.5px"></line></g></g><g><g><line x1="27.84375" y1="0" x2="27.84375" y2="177" fill="rgb(0, 0, 0)" stroke="rgb(153, 153, 153)" stroke-width="1.5px"></line></g></g><g><g><g><g><g><path stroke="rgb(255, 112, 67)" stroke-width="2px" d="M37.06003125,-13.976032051400244L39.3710625,0.7964607009699094L41.68209375,14.05598438381027L43.993125,25.95493908334172L46.30415625,36.76632501123718L48.615187500000005,46.744862924372825L50.926218750000004,56.00122414700265L53.23725,64.57631670553072L55.54828125,72.4459948069054L57.8593125,79.34577386637261L60.170343749999994,85.69159587686215L62.481375,91.89396798180833L64.79240625,97.28449676329203L67.1034375,102.15393855919989L69.41446875,106.46597188948901L71.7255,110.73545569127289L74.03653125000001,115.0543397977927L76.3475625,118.92328297880522L78.65859375,122.31291969500855L80.96962500000001,125.29648861381361L83.28065624999999,127.94489173704345L85.5916875,130.4125191499326L87.90271874999999,132.61608535725458L90.21375,134.72221566753947L92.52478124999999,136.60086788398613L94.8358125,138.38955671151587L97.14684375,140.00140424992807L99.457875,141.45775880835012L101.76890625,142.67127899423232L104.0799375,143.81309963132517L106.39096875,145.05061014303047L108.70200000000001,146.2008594919797L111.01303125,147.24451369495142L113.3240625,148.322322328508L115.63509375,149.2537412613169L117.946125,150.0844780308358L120.25715625000001,150.7722647674547L122.5681875,151.45832111489165L124.87921875,152.0534804704752L127.19024999999999,152.67329827344233L129.50128125,153.267784267593L131.8123125,153.8272828956104L134.12334375,154.28113638580632L136.434375,154.70464889138012L138.74540625,155.08811443600365L141.05643750000002,155.3866925508021L143.36746875,155.53794516117927L145.67849999999999,154.04671088719573L147.98953125,151.46086850501862L150.30056249999998,151.10142088942325L152.61159375,152.28563871212486L154.922625,153.47491635413652L157.23365625,154.55012319151612L159.54468749999998,155.3799532569294L161.85571875000002,155.96348285857417L164.16675,156.38271922138978L166.47778125,156.6877234080741L168.78881249999998,156.92132830995675L171.09984375000002,157.10625552246483L173.410875,157.25809443852015L175.72190625,157.38780302255276L178.0329375,157.50110347955777L180.34396875000002,157.60398329288873L182.655,157.69816713707812L184.96603125000001,157.78552485109668L187.2770625,157.86711576350808L189.58809374999998,157.943343700652L191.899125,158.01538951467555L194.21015625,158.08259875291486L196.5211875,158.14844667860208L198.83221874999998,158.20896909995878L201.14325000000002,158.2639433989391L203.45428125,158.31517054908514L205.7653125,158.36288119836473L208.07634374999998,158.40738260185017L210.38737500000002,158.44884262817527L212.69840625,158.48788801602976L215.0094375,158.52449460013185L217.32046875,158.55894334786964L219.6315,158.59114052326655L221.94253125,158.62201875149785L224.25356250000002,158.65124822431926L226.56459375,158.67834061797186L228.87562499999999,158.70431982822777L231.18665625,158.72860055612807L233.4976875,158.7516145493301L235.80871875,158.7726051200792L238.11974999999998,158.79311138568386L240.43078125000002,158.81206838462464L242.7418125,158.83088346514086L245.05284375,158.8489047298348L247.36387499999998,158.86727146933697L249.67490625000002,158.88478729353605L251.9859375,158.90242891621594L254.29696875,158.91921618189366L256.608,158.935531277869L258.91903125,158.9505905083426" style="fill: none;" fill="none"></path></g><g><path stroke="rgb(0, 119, 187)" stroke-width="2px" d="M37.11571875,-13.823035669326798L46.415531249999994,33.611208933591826L55.71534375,67.78986801018519L65.01515625,92.84075600793037L74.31496875,110.14161720212385L83.61478125000001,122.54127431189046L92.91459375,131.40150430959605L102.21440625,138.24735121327313L111.51421875000001,142.8731212247545L120.81403125,146.5899522974798L130.11384375,149.32192759851674L139.41365625,151.30103429918452L148.71346875,152.709681131514L158.01328125,153.83541679909786L167.31309375,154.54225687201773L176.61290624999998,155.17062227641472L185.91271874999998,155.78542463084327L195.21253124999998,156.1483546282517L204.51234375,155.96495650924254L213.81215625000002,156.4856013350081L223.11196875000002,156.9508472434099L232.41178125,157.4394906499021L241.71159375,157.82061571788648L251.01140625,158.09132203405258L260.31121874999997,158.29277439312858L269.61103125,158.42946550742116L278.91084375,157.991884064268" style="fill: none;" fill="none"></path></g></g></g></g><g opacity="0.2"><g><g><g><path stroke="rgb(255, 112, 67)" stroke-width="2px" d="M34.748999999999995,-10.667967152595535L37.06003125,5.7620148539543194L39.3710625,20.08342723846436L41.68209375,32.39867906570435L43.993125,42.97063468694687L46.30415625,52.5294294834137L48.615187500000005,61.461268115043644L50.926218750000004,69.7458417892456L53.23725,77.36118008494377L55.54828125,84.20768551826477L57.8593125,89.67291347980499L60.170343749999994,95.1978967666626L62.481375,101.19023548364639L64.79240625,105.3664881169796L67.1034375,109.45604066848755L69.41446875,112.93292706012726L71.7255,117.13903098106384L74.03653125000001,121.532271194458L76.3475625,124.72648556828499L78.65859375,127.39726323187351L80.96962500000001,129.77178308665754L83.28065624999999,131.9174650490284L85.5916875,134.1139427304268L87.90271874999999,135.92142527103425L90.21375,137.88140574395658L92.52478124999999,139.41884332448245L94.8358125,141.07258830517532L97.14684375,142.41917466670276L99.457875,143.64229016304017L101.76890625,144.49155903160573L104.0799375,145.52583045065404L106.39096875,146.90687582194806L108.70200000000001,147.92623346596957L111.01303125,148.80999497249724L113.3240625,149.93903526216747L115.63509375,150.65086965188385L117.946125,151.33058318048717L120.25715625000001,151.80394487008454L122.5681875,152.48740563467146L124.87921875,152.9462195031345L127.19024999999999,153.6030249774456L129.50128125,154.1595132585615L131.8123125,154.66653083749117L134.12334375,154.9619166210294L136.434375,155.33991764970125L138.74540625,155.66331275291742L141.05643750000002,155.8345597229898L143.36746875,155.76482407674195L145.67849999999999,151.8098594762385L147.98953125,147.58210493177177L150.30056249999998,150.5622494660318L152.61159375,154.06196544617416L154.922625,155.25883281715215L157.23365625,156.16293344758452L159.54468749999998,156.6246983550489L161.85571875000002,156.83877726104112L164.16675,157.01157376561315L166.47778125,157.14522968810053L168.78881249999998,157.2717356627807L171.09984375000002,157.383646341227L173.410875,157.48585281260313L175.72190625,157.58236589860172L178.0329375,157.6710541650653L180.34396875000002,157.75830301288516L182.655,157.83944290336223L184.96603125000001,157.91656142212452L187.2770625,157.9895021321252L189.58809374999998,158.0576856063679L191.899125,158.12345823571087L194.21015625,158.18341261027382L196.5211875,158.24721856713296L198.83221874999998,158.2997527319938L201.14325000000002,158.3464048474096L203.45428125,158.39201127430425L205.7653125,158.43444717228414L208.07634374999998,158.47413470707835L210.38737500000002,158.51103266766296L212.69840625,158.54645609781147L215.0094375,158.579404476285L217.32046875,158.61061646947638L219.6315,158.6394362863619L221.94253125,158.66833609384486L224.25356250000002,158.69509243355134L226.56459375,158.71897920845078L228.87562499999999,158.7432886436116L231.18665625,158.76502164797859L233.4976875,158.7861355391331L235.80871875,158.80409097620287L238.11974999999998,158.82387078409084L240.43078125000002,158.84050388303586L242.7418125,158.85910608591513L245.05284375,158.87593662687578L247.36387499999998,158.8948215785902L249.67490625000002,158.91106102983468L251.9859375,158.9288913502358L254.29696875,158.94439708041028L256.608,158.96000392183197L258.91903125,158.973179354053" style="fill: none;" fill="none"></path></g><g><path stroke="rgb(0, 119, 187)" stroke-width="2px" d="M37.11571875,-13.823035669326798L46.415531249999994,62.07175569534302L55.71534375,100.60138072371483L65.01515625,122.30060029327869L74.31496875,132.7296215772629L83.61478125000001,139.69446397125722L92.91459375,144.07177496999503L102.21440625,148.2286617189646L111.51421875000001,149.69523348212243L120.81403125,152.1090132661164L130.11384375,153.39511173516513L139.41365625,154.25892413891853L148.71346875,154.81805190369488L158.01328125,155.52181486710907L167.31309375,155.60168611742557L176.61290624999998,156.11272721104325L185.91271874999998,156.70736799873413L195.21253124999998,156.69265747647734L204.51234375,155.68988726958634L213.81215625000002,157.26652098465712L223.11196875000002,157.64869059082122L232.41178125,158.17243968062104L241.71159375,158.39229579521344L251.01140625,158.49737830152736L260.31121874999997,158.59495149990545L269.61103125,158.63450159593486L278.91084375,157.33551301918925" style="fill: none;" fill="none"></path></g></g></g></g></g></g><g transform="translate(51, 177)" clip-path="url(#clip_1)"><clipPath id="clip_1"><rect width="278" height="23"></rect></clipPath><g><g><line x1="0" y1="0" x2="0" y2="5" style="visibility: inherit;" fill="rgb(0, 0, 0)" stroke="rgb(204, 204, 204)" stroke-width="1px"></line><line x1="27.84375" y1="0" x2="27.84375" y2="5" style="visibility: inherit;" fill="rgb(0, 0, 0)" stroke="rgb(204, 204, 204)" stroke-width="1px"></line><line x1="55.6875" y1="0" x2="55.6875" y2="5" style="visibility: inherit;" fill="rgb(0, 0, 0)" stroke="rgb(204, 204, 204)" stroke-width="1px"></line><line x1="83.53125" y1="0" x2="83.53125" y2="5" style="visibility: inherit;" fill="rgb(0, 0, 0)" stroke="rgb(204, 204, 204)" stroke-width="1px"></line><line x1="111.375" y1="0" x2="111.375" y2="5" style="visibility: inherit;" fill="rgb(0, 0, 0)" stroke="rgb(204, 204, 204)" stroke-width="1px"></line><line x1="139.21875" y1="0" x2="139.21875" y2="5" style="visibility: inherit;" fill="rgb(0, 0, 0)" stroke="rgb(204, 204, 204)" stroke-width="1px"></line><line x1="167.0625" y1="0" x2="167.0625" y2="5" style="visibility: inherit;" fill="rgb(0, 0, 0)" stroke="rgb(204, 204, 204)" stroke-width="1px"></line><line x1="194.90625" y1="0" x2="194.90625" y2="5" style="visibility: inherit;" fill="rgb(0, 0, 0)" stroke="rgb(204, 204, 204)" stroke-width="1px"></line><line x1="222.75" y1="0" x2="222.75" y2="5" style="visibility: inherit;" fill="rgb(0, 0, 0)" stroke="rgb(204, 204, 204)" stroke-width="1px"></line><line x1="250.59375" y1="0" x2="250.59375" y2="5" style="visibility: inherit;" fill="rgb(0, 0, 0)" stroke="rgb(204, 204, 204)" stroke-width="1px"></line><line x1="278.4375" y1="0" x2="278.4375" y2="5" style="visibility: inherit;" fill="rgb(0, 0, 0)" stroke="rgb(204, 204, 204)" stroke-width="1px"></line></g><g transform="translate(0, 8)"><text x="0" y="0" dx="0em" dy="0.95em" style="text-anchor: middle; visibility: hidden; font-family: Roboto, sans-serif; font-size: 12px; font-weight: 200;" fill="rgb(33, 33, 33)" stroke="none" stroke-width="1px">-1k</text><text x="27.84375" y="0" dx="0em" dy="0.95em" style="text-anchor: middle; visibility: inherit; font-family: Roboto, sans-serif; font-size: 12px; font-weight: 200;" fill="rgb(33, 33, 33)" stroke="none" stroke-width="1px">0</text><text x="55.6875" y="0" dx="0em" dy="0.95em" style="text-anchor: middle; visibility: inherit; font-family: Roboto, sans-serif; font-size: 12px; font-weight: 200;" fill="rgb(33, 33, 33)" stroke="none" stroke-width="1px">1k</text><text x="83.53125" y="0" dx="0em" dy="0.95em" style="text-anchor: middle; visibility: inherit; font-family: Roboto, sans-serif; font-size: 12px; font-weight: 200;" fill="rgb(33, 33, 33)" stroke="none" stroke-width="1px">2k</text><text x="111.375" y="0" dx="0em" dy="0.95em" style="text-anchor: middle; visibility: inherit; font-family: Roboto, sans-serif; font-size: 12px; font-weight: 200;" fill="rgb(33, 33, 33)" stroke="none" stroke-width="1px">3k</text><text x="139.21875" y="0" dx="0em" dy="0.95em" style="text-anchor: middle; visibility: inherit; font-family: Roboto, sans-serif; font-size: 12px; font-weight: 200;" fill="rgb(33, 33, 33)" stroke="none" stroke-width="1px">4k</text><text x="167.0625" y="0" dx="0em" dy="0.95em" style="text-anchor: middle; visibility: inherit; font-family: Roboto, sans-serif; font-size: 12px; font-weight: 200;" fill="rgb(33, 33, 33)" stroke="none" stroke-width="1px">5k</text><text x="194.90625" y="0" dx="0em" dy="0.95em" style="text-anchor: middle; visibility: inherit; font-family: Roboto, sans-serif; font-size: 12px; font-weight: 200;" fill="rgb(33, 33, 33)" stroke="none" stroke-width="1px">6k</text><text x="222.75" y="0" dx="0em" dy="0.95em" style="text-anchor: middle; visibility: inherit; font-family: Roboto, sans-serif; font-size: 12px; font-weight: 200;" fill="rgb(33, 33, 33)" stroke="none" stroke-width="1px">7k</text><text x="250.59375" y="0" dx="0em" dy="0.95em" style="text-anchor: middle; visibility: inherit; font-family: Roboto, sans-serif; font-size: 12px; font-weight: 200;" fill="rgb(33, 33, 33)" stroke="none" stroke-width="1px">8k</text><text x="278.4375" y="0" dx="0em" dy="0.95em" style="text-anchor: middle; visibility: hidden; font-family: Roboto, sans-serif; font-size: 12px; font-weight: 200;" fill="rgb(33, 33, 33)" stroke="none" stroke-width="1px">9k</text></g><line x1="0" y1="0" x2="278.4375" y2="0" fill="rgb(0, 0, 0)" stroke="rgb(204, 204, 204)" stroke-width="1px"></line></g></g></g></g></svg>