<svg viewBox="0 0 1289.666748046875 400" xmlns="http://www.w3.org/2000/svg"><g><g><g><g><g><line x1="51.5625" y1="377" x2="46.5625" y2="377" style="visibility: inherit;" fill="rgb(0, 0, 0)" stroke="rgb(204, 204, 204)" stroke-width="1px"></line><line x1="51.5625" y1="339.3" x2="46.5625" y2="339.3" style="visibility: inherit;" fill="rgb(0, 0, 0)" stroke="rgb(204, 204, 204)" stroke-width="1px"></line><line x1="51.5625" y1="301.6" x2="46.5625" y2="301.6" style="visibility: inherit;" fill="rgb(0, 0, 0)" stroke="rgb(204, 204, 204)" stroke-width="1px"></line><line x1="51.5625" y1="263.9" x2="46.5625" y2="263.9" style="visibility: inherit;" fill="rgb(0, 0, 0)" stroke="rgb(204, 204, 204)" stroke-width="1px"></line><line x1="51.5625" y1="226.2" x2="46.5625" y2="226.2" style="visibility: inherit;" fill="rgb(0, 0, 0)" stroke="rgb(204, 204, 204)" stroke-width="1px"></line><line x1="51.5625" y1="188.5" x2="46.5625" y2="188.5" style="visibility: inherit;" fill="rgb(0, 0, 0)" stroke="rgb(204, 204, 204)" stroke-width="1px"></line><line x1="51.5625" y1="150.8" x2="46.5625" y2="150.8" style="visibility: inherit;" fill="rgb(0, 0, 0)" stroke="rgb(204, 204, 204)" stroke-width="1px"></line><line x1="51.5625" y1="113.10000000000002" x2="46.5625" y2="113.10000000000002" style="visibility: inherit;" fill="rgb(0, 0, 0)" stroke="rgb(204, 204, 204)" stroke-width="1px"></line><line x1="51.5625" y1="75.40000000000002" x2="46.5625" y2="75.40000000000002" style="visibility: inherit;" fill="rgb(0, 0, 0)" stroke="rgb(204, 204, 204)" stroke-width="1px"></line><line x1="51.5625" y1="37.69999999999999" x2="46.5625" y2="37.69999999999999" style="visibility: inherit;" fill="rgb(0, 0, 0)" stroke="rgb(204, 204, 204)" stroke-width="1px"></line><line x1="51.5625" y1="0" x2="46.5625" y2="0" style="visibility: inherit;" fill="rgb(0, 0, 0)" stroke="rgb(204, 204, 204)" stroke-width="1px"></line></g><g transform="translate(41.5625, 0)"><text x="0" y="377" dx="0em" dy="0.3em" style="text-anchor: end; visibility: hidden; font-family: Roboto, sans-serif; font-size: 12px; font-weight: 200;" fill="rgb(33, 33, 33)" stroke="none" stroke-width="1px">-0.2</text><text x="0" y="339.3" dx="0em" dy="0.3em" style="text-anchor: end; visibility: inherit; font-family: Roboto, sans-serif; font-size: 12px; font-weight: 200;" fill="rgb(33, 33, 33)" stroke="none" stroke-width="1px">0</text><text x="0" y="301.6" dx="0em" dy="0.3em" style="text-anchor: end; visibility: inherit; font-family: Roboto, sans-serif; font-size: 12px; font-weight: 200;" fill="rgb(33, 33, 33)" stroke="none" stroke-width="1px">0.2</text><text x="0" y="263.9" dx="0em" dy="0.3em" style="text-anchor: end; visibility: inherit; font-family: Roboto, sans-serif; font-size: 12px; font-weight: 200;" fill="rgb(33, 33, 33)" stroke="none" stroke-width="1px">0.4</text><text x="0" y="226.2" dx="0em" dy="0.3em" style="text-anchor: end; visibility: inherit; font-family: Roboto, sans-serif; font-size: 12px; font-weight: 200;" fill="rgb(33, 33, 33)" stroke="none" stroke-width="1px">0.6</text><text x="0" y="188.5" dx="0em" dy="0.3em" style="text-anchor: end; visibility: inherit; font-family: Roboto, sans-serif; font-size: 12px; font-weight: 200;" fill="rgb(33, 33, 33)" stroke="none" stroke-width="1px">0.8</text><text x="0" y="150.8" dx="0em" dy="0.3em" style="text-anchor: end; visibility: inherit; font-family: Roboto, sans-serif; font-size: 12px; font-weight: 200;" fill="rgb(33, 33, 33)" stroke="none" stroke-width="1px">1</text><text x="0" y="113.10000000000002" dx="0em" dy="0.3em" style="text-anchor: end; visibility: inherit; font-family: Roboto, sans-serif; font-size: 12px; font-weight: 200;" fill="rgb(33, 33, 33)" stroke="none" stroke-width="1px">1.2</text><text x="0" y="75.40000000000002" dx="0em" dy="0.3em" style="text-anchor: end; visibility: inherit; font-family: Roboto, sans-serif; font-size: 12px; font-weight: 200;" fill="rgb(33, 33, 33)" stroke="none" stroke-width="1px">1.4</text><text x="0" y="37.69999999999999" dx="0em" dy="0.3em" style="text-anchor: end; visibility: inherit; font-family: Roboto, sans-serif; font-size: 12px; font-weight: 200;" fill="rgb(33, 33, 33)" stroke="none" stroke-width="1px">1.6</text><text x="0" y="0" dx="0em" dy="0.3em" style="text-anchor: end; visibility: hidden; font-family: Roboto, sans-serif; font-size: 12px; font-weight: 200;" fill="rgb(33, 33, 33)" stroke="none" stroke-width="1px">1.8</text></g><line x1="51.5625" y1="0" x2="51.5625" y2="377" fill="rgb(0, 0, 0)" stroke="rgb(204, 204, 204)" stroke-width="1px"></line></g></g><g transform="translate(51, 0)" clip-path="url(#clip_0)"><clipPath id="clip_0"><rect width="1238" height="377"></rect></clipPath><g><g><g><line x1="0" y1="0" x2="0" y2="377" fill="rgb(0, 0, 0)" stroke="rgb(66, 66, 66)" stroke-width="1px" opacity="0.25"></line><line x1="154.7634375" y1="0" x2="154.7634375" y2="377" fill="rgb(0, 0, 0)" stroke="rgb(66, 66, 66)" stroke-width="1px" opacity="0.25"></line><line x1="309.526875" y1="0" x2="309.526875" y2="377" fill="rgb(0, 0, 0)" stroke="rgb(66, 66, 66)" stroke-width="1px" opacity="0.25"></line><line x1="464.2903125" y1="0" x2="464.2903125" y2="377" fill="rgb(0, 0, 0)" stroke="rgb(66, 66, 66)" stroke-width="1px" opacity="0.25"></line><line x1="619.05375" y1="0" x2="619.05375" y2="377" fill="rgb(0, 0, 0)" stroke="rgb(66, 66, 66)" stroke-width="1px" opacity="0.25"></line><line x1="773.8171875" y1="0" x2="773.8171875" y2="377" fill="rgb(0, 0, 0)" stroke="rgb(66, 66, 66)" stroke-width="1px" opacity="0.25"></line><line x1="928.580625" y1="0" x2="928.580625" y2="377" fill="rgb(0, 0, 0)" stroke="rgb(66, 66, 66)" stroke-width="1px" opacity="0.25"></line><line x1="1083.3440625" y1="0" x2="1083.3440625" y2="377" fill="rgb(0, 0, 0)" stroke="rgb(66, 66, 66)" stroke-width="1px" opacity="0.25"></line><line x1="1238.1075" y1="0" x2="1238.1075" y2="377" fill="rgb(0, 0, 0)" stroke="rgb(66, 66, 66)" stroke-width="1px" opacity="0.25"></line></g><g><line x1="0" y1="377" x2="1238.1075" y2="377" fill="rgb(0, 0, 0)" stroke="rgb(66, 66, 66)" stroke-width="1px" opacity="0.25"></line><line x1="0" y1="339.3" x2="1238.1075" y2="339.3" fill="rgb(0, 0, 0)" stroke="rgb(66, 66, 66)" stroke-width="1px" opacity="0.25"></line><line x1="0" y1="301.6" x2="1238.1075" y2="301.6" fill="rgb(0, 0, 0)" stroke="rgb(66, 66, 66)" stroke-width="1px" opacity="0.25"></line><line x1="0" y1="263.9" x2="1238.1075" y2="263.9" fill="rgb(0, 0, 0)" stroke="rgb(66, 66, 66)" stroke-width="1px" opacity="0.25"></line><line x1="0" y1="226.2" x2="1238.1075" y2="226.2" fill="rgb(0, 0, 0)" stroke="rgb(66, 66, 66)" stroke-width="1px" opacity="0.25"></line><line x1="0" y1="188.5" x2="1238.1075" y2="188.5" fill="rgb(0, 0, 0)" stroke="rgb(66, 66, 66)" stroke-width="1px" opacity="0.25"></line><line x1="0" y1="150.8" x2="1238.1075" y2="150.8" fill="rgb(0, 0, 0)" stroke="rgb(66, 66, 66)" stroke-width="1px" opacity="0.25"></line><line x1="0" y1="113.10000000000002" x2="1238.1075" y2="113.10000000000002" fill="rgb(0, 0, 0)" stroke="rgb(66, 66, 66)" stroke-width="1px" opacity="0.25"></line><line x1="0" y1="75.40000000000002" x2="1238.1075" y2="75.40000000000002" fill="rgb(0, 0, 0)" stroke="rgb(66, 66, 66)" stroke-width="1px" opacity="0.25"></line><line x1="0" y1="37.69999999999999" x2="1238.1075" y2="37.69999999999999" fill="rgb(0, 0, 0)" stroke="rgb(66, 66, 66)" stroke-width="1px" opacity="0.25"></line><line x1="0" y1="0" x2="1238.1075" y2="0" fill="rgb(0, 0, 0)" stroke="rgb(66, 66, 66)" stroke-width="1px" opacity="0.25"></line></g></g></g><g><g><line x1="0" y1="339.3" x2="1238.1075" y2="339.3" fill="rgb(0, 0, 0)" stroke="rgb(153, 153, 153)" stroke-width="1.5px"></line></g></g><g><g><line x1="154.7634375" y1="0" x2="154.7634375" y2="377" fill="rgb(0, 0, 0)" stroke="rgb(153, 153, 153)" stroke-width="1.5px"></line></g></g><g><g><g><g><g><path stroke="rgb(0, 119, 187)" stroke-width="2px" d="M165.0706824375,-29.442285013198887L175.4088800625,71.58997609019276L185.7470776875,144.3885889256487L196.0852753125,197.74556505643926L206.42347293750004,234.5954219502864L216.76167056250003,261.0059910484899L227.09986818750002,279.8777803656368L237.4380658125,294.4590474994574L247.7762634375,304.31167628097427L258.1144610625,312.22831647542307L268.4526586875,318.0472695177447L278.7908563125,322.26265497622916L289.12905393750003,325.2629931445242L299.46725156250005,327.6607465155926L309.80544918749996,329.16627593644455L320.14364681250004,330.5046587469398L330.48184443750006,331.81415302727635L340.8200420625,332.58717341723667L351.15823968750004,332.1965457852228L361.4964373125,333.30548984914157L371.8346349375,334.2964373489578L382.1728325625,335.3372201978141L392.5110301875,336.1489950601311L402.84922781250003,336.72558421942273L413.1874254375,337.1546663627654L423.5256230625001,337.44581071354673L433.8638206875,336.51378696174595L444.20201831250006,335.64843058097546L454.5402159375,335.64875058853903L464.87841356250004,336.4469985970488L475.21661118750006,337.14754130226345L485.5548088125,337.65238443829696L495.89300643750005,338.0105066200512L506.2312040625,338.26457366437916L516.5694016875001,338.45285057727153L526.9075993125,338.5920773475201L537.2457969375,338.69967033512904L547.5839945625,338.78539346482216L557.9221921875001,338.3428924703104L568.2603898125001,336.49724028011326L578.5985874375,336.89303432313903L588.9367850625,337.2657349635714L599.2749826875,337.82264514378653L609.6131803125,338.22005951369215L619.9513779375,338.4957405177718L630.2895755625001,338.68038651020004L640.6277731875001,338.8055409960005L650.9659708125,338.892545775644L661.3041684375,338.95490388944L671.6423660625001,339.0020120589068L681.9805636875001,339.0399100729828L692.3187613125,339.0699690395188L702.6569589375,339.087350172433L712.9951565625,339.1180827477504L723.3333541875,339.14539872678137L733.6715518125,339.1684948529382L744.0097494375001,339.18417053390715L754.3479470625001,338.702721474583L764.6861446875,337.6108184743761L775.0243423124999,337.78622781444875L785.3625399375001,338.2593727450999L795.7007375625001,338.6007331020727L806.0389351875,338.8253936369871L816.3771328125001,338.96808162867825L826.7153304375,339.0589830454181L837.0535280625,339.117548886075L847.3917256875,339.155918850824L857.7299233125001,339.1817086671284L868.0681209375,339.19967602712563L878.4063185625,339.2127387588145L888.7445161875002,339.2226825930504L899.0827138125001,339.23063217446764L909.4209114375001,339.2372422020455L919.7591090625,339.2429555830091L930.0973066875001,339.2480237013516L940.4355043125,339.2526179547527L950.7737019375,339.2567558701085L961.1118995625001,339.26060982901504L971.4500971875001,339.2640727587484L981.7882948125,339.26710971239623L992.1264924375,337.6579606271888L1002.4646900625002,337.13976788656294L1012.8028876875001,337.6782394113511L1023.1410853125,338.2379527029085L1033.4792829375,338.6118836338194L1043.8174805625001,338.8510656467982L1054.1556781875001,338.99985111509295L1064.4938758125,339.09277615516004L1074.8320734375002,339.1510961307391L1085.1702710625,339.1881935937309L1095.5084686875,339.21223548163067L1105.8466663125,339.22824434242506L1116.1848639375,339.23925523335L1126.5230615625,339.24713842953525L1136.8612591875,339.253051372599L1147.1994568125,339.25770087227164L1157.5376544375001,339.26148892965966L1167.8758520625001,339.26475306768555L1178.2140496875002,339.26761084169385L1188.5522473125002,339.2702222495597" style="fill: none;" fill="none"></path></g><g><path stroke="rgb(255, 112, 67)" stroke-width="2px" d="M195.59003231250003,-11.934648211914018L205.80441918750003,8.651991517025913L216.0188060625,26.019548258430255L226.2331929375,41.321019323740764L236.4475798125,54.75976176011735L246.66196668750004,66.90717663022845L256.8763535625,77.69191205425365L267.0907404375,87.37906514644541L277.3051273125,96.05755123801674L287.5195141875,103.4636809533227L297.7339010625,110.53186765752397L307.9482879375,117.26446617013043L318.16267481250003,123.59810808409938L328.37706168750003,129.526794376732L338.59144856250003,135.04610412494404L348.80583543750004,140.1092103858828L359.0202223125,144.73381079419391L369.23460918750004,149.35569642076575L379.44899606250004,153.86079717671458L389.6633829375,157.85768029603778L399.87776981250005,161.91724603140466L410.0921566875,165.75392858975596L420.30654356250005,169.50306286187853L430.52093043750006,172.5522228750758L440.7353173125,175.75584784742907L450.94970418750006,178.8623265196629L461.1640910625,182.11361475877715L471.3784779375,185.05082167778872L481.59286481250007,187.90338228275206L491.8072516875,190.576850526024L502.0216385625,193.43430714717107L512.2360254375001,196.06314655359083L522.4504123125,198.59779808403042L532.6647991875001,201.14093637062004L542.8791860625,203.2964059480171L553.0935729375,205.35278321296005L563.3079598125,206.7451061755555L573.5223466875,209.08818392167484L583.7367335625,211.3727346396115L593.9511204375001,213.25509267239485L604.1655073125,214.79075532217826L614.3798941875001,216.3294029729774L624.5942810625,218.1816350590675L634.8086679375,219.60366666867625L645.0230548125,221.03506769990733L655.2374416875,222.69301578676436L665.4518285625,224.15570624159406L675.6662154375001,224.78342106751884L685.8806023125001,226.26613309391146L696.0949891875,227.64130363230828L706.3093760625,229.05667289832337L716.5237629375001,230.3902423258975L726.7381498125001,231.26981430032015L736.9525366875,232.61249798523318L747.1669235625001,233.76433162204594L757.3813104375,234.46021811671366L767.5956973125001,235.6896164876659L777.8100841875001,236.68923084631203L788.0244710625001,237.4219106429496L798.2388579375,238.6422402568864L808.4532448125,239.36544515062616L818.6676316875,240.00243357759263L828.8820185625001,241.15476005757776L839.0964054375,242.0770314853485L849.3107923125001,242.91510578638884L859.5251791875,243.8739960720931L869.7395660625,244.6230329424616L879.9539529375002,244.98754632893065L890.1683398125001,245.9149814166001L900.3827266875,246.3776711903436L910.5971135625,247.53316444172995L920.8115004375001,248.1367586029442L931.0258873125,249.103581428103L941.2402741875001,248.98721945379518L951.4546610625001,250.0792021232506L961.6690479375001,251.03770012841585L971.8834348125,251.35221904150222L982.0978216875,251.877747475097L992.3122085625001,252.75884038864936L1002.5265954375001,253.60764651810743L1012.7409823125,253.31541833588852L1022.9553691875001,254.0582152754627L1033.1697560625,255.07134113136306L1043.3841429375,255.77732257022487L1053.5985298125001,256.503889514053L1063.8129166875,257.0697477311159L1074.0273035625,257.72488514603765L1084.2416904375,258.23579402698033L1094.4560773125,258.1844917066869L1104.6704641875,258.9456922440515L1114.8848510625,259.62391996674455L1125.0992379375,260.30208097989987L1135.3136248125,260.7932189362981L1145.5280116875,261.1880839513384L1155.7423985625,261.37192432681576L1165.9567854375,261.92004132747564L1176.1711723125002,262.237022147655" style="fill: none;" fill="none"></path></g><g><path stroke="rgb(51, 187, 238)" stroke-width="2px" d="M185.83993575000002,-19.787861922322513L196.2090860625,13.72531902890878L206.57823637500002,43.91004233087296L216.9473866875,72.10029360977205L227.31653700000004,98.69420615277637L237.68568731250002,123.04581386387888L248.054837625,144.88516574504033L258.4239879375,165.17888611761236L268.79313825,183.62943742160587L279.1622885625,200.12688157921446L289.531438875,213.87431443518955L299.90058918750003,224.96185805433527L310.2697395,234.69110716485025L320.63888981250005,242.36257915444895L331.008040125,250.21915426679394L341.3771904375,254.8347547586969L351.74634075000006,260.7438094434458L362.1154910625,265.9645184057082L372.484641375,270.84887292025365L382.85379168750006,275.2151634399914L393.222942,278.82041276105724L403.59209231250003,282.51986786579283L413.961242625,285.5575285849684L424.33039293750005,288.6971542906903L434.69954325000003,291.6332925623363L445.0686935625,292.91879587948193L455.43784387500006,295.13875292545794L465.8069941875,298.08329299521074L476.1761445,300.25676560700026L486.54529481250006,302.6580415759261L496.914445125,304.9760145825629L507.2835954375,305.78282546939306L517.65274575,307.9836084126781L528.0218960625,309.3566444508404L538.3910463750001,311.6768718721316L548.7601966875,313.75644583322986L559.129347,315.8786579418875L569.4984973125,317.68006716126786L579.867647625,318.31132626080233L590.2367979375,317.84281731817657L600.60594825,319.81415233891624L610.9750985625001,321.51117859560696L621.3442488750001,322.98609901520115L631.7133991875,324.24073380390183L642.0825495,325.6218763425532L652.4516998125,326.9301048825726L662.820850125,328.05604767759445L673.1900004375001,329.02108386552993L683.5591507500001,329.47401461137554L693.9283010624999,329.5757370573775L704.297451375,329.4995657065507L714.6666016875,330.1917027542894L725.035752,331.0853493983993L735.4049023125001,329.764886287328L745.7740526250001,330.21803054852876L756.1432029375,330.37298361267807L766.51235325,331.5276946880291L776.8815035625,332.4997595561517L787.2506538750001,333.22899154397686L797.6198041875001,333.7936428678652L807.9889545,334.24373467043756L818.3581048125001,334.61573666505944L828.727255125,334.93552475086113L839.0964054375,335.21404924123743L849.4655557500001,335.4733595793203L859.8347060625,335.6856534743163L870.203856375,335.7515228857906L880.5730066875001,335.6871498094685L890.9421570000001,334.57097223321716L901.3113073125,335.07064344842803L911.680457625,335.58908382671075L922.0496079375,335.9881757574424L932.41875825,336.28839370181527L942.7879085625001,336.5136138362161L953.1570588750001,336.6919969501702L963.5262091875,336.8382200896432L973.8953595,336.9616621403584L984.2645098125,337.07188446528846L994.6336601250001,337.1751271612995L1005.0028104375001,337.2721981758656L1015.3719607500001,337.36337098030936L1025.7411110625,337.262188970476L1036.110261375,336.8818580825953L1046.4794116875,336.8517974419044L1056.8485620000001,337.14433811143914L1067.2177123125002,336.90384712210823L1077.586862625,336.5331405622752L1087.9560129375,336.51022173534284L1098.32516325,336.9503806314719L1108.6943135625002,337.2740813606591L1119.063463875,337.53426250130974L1129.4326141875001,337.7142965690891L1139.8017645,337.84365753155424L1150.1709148125,337.9397009911364L1160.5400651250002,338.01479931978736L1170.9092154375,338.07679804344986L1181.27836575,338.12919410097606L1191.6475160625,338.17375887889347" style="fill: none;" fill="none"></path></g></g></g></g><g opacity="0.2"><g><g><g><path stroke="rgb(0, 119, 187)" stroke-width="2px" d="M165.0706824375,-29.442285013198887L175.4088800625,132.2093327522278L185.7470776875,214.2752572476864L196.0852753125,260.493368986249L206.42347293750004,282.70659511089326L216.76167056250003,297.5413159161806L227.09986818750002,306.864741037786L237.4380658125,315.71867496073247L247.7762634375,318.8423899590969L258.1144610625,323.98360452726484L268.4526586875,326.7229216054082L278.7908563125,328.5627932224423L289.12905393750003,329.75370377227665L299.46725156250005,331.2526791237295L309.80544918749996,331.4228003744036L320.14364681250004,332.5112890314311L330.48184443750006,333.77784031368793L340.8200420625,333.7465077323839L351.15823968750004,331.6106638453901L361.4964373125,334.96880458313973L371.8346349375,335.7828042527661L382.1728325625,336.89836022369565L392.5110301875,337.36664132652805L402.84922781250003,337.59046112811194L413.1874254375,337.7982865280472L423.5256230625001,337.88252599812114L433.8638206875,335.1157537188381L444.20201831250006,334.35039733834566L454.5402159375,335.64923059958966L464.87841356250004,337.64437016863377L475.21661118750006,338.1983551277779L485.5548088125,338.4096490419004L495.89300643750005,338.5476898499299L506.2312040625,338.64567421267276L516.5694016875001,338.7352659385186L526.9075993125,338.8009174993029L537.2457969375,338.8610598148778L547.5839945625,338.9139781585662L557.9221921875001,337.6791409810074L568.2603898125001,333.72876200098545L578.5985874375,337.4867253868841L588.9367850625,337.82478592377157L599.2749826875,338.65801041370725L609.6131803125,338.8161810683785L619.9513779375,338.9092620238196L630.2895755625001,338.95735549881357L640.6277731875001,338.99327272468946L650.9659708125,339.02305294510444L661.3041684375,339.0484410601319L671.6423660625001,339.0726743131061L681.9805636875001,339.0967570940964L692.3187613125,339.1150574893225L702.6569589375,339.1134218718042L712.9951565625,339.16418161072653L723.3333541875,339.18637269532775L733.6715518125,339.2031390421733L744.0097494375001,339.20768405536074L754.3479470625001,337.98054788559676L764.6861446875,335.9729639740661L775.0243423124999,338.04934182455764L785.3625399375001,338.9690901410766L795.7007375625001,339.1127736375318L806.0389351875,339.16238443935873L816.3771328125001,339.1821136162151L826.7153304375,339.1953351705277L837.0535280625,339.20539764706047L847.3917256875,339.21347379794753L857.7299233125001,339.2203933915851L868.0681209375,339.22662706712146L878.4063185625,339.2323328563478L888.7445161875002,339.23759834440426L899.0827138125001,339.24255654659356L909.4209114375001,339.24715724341223L919.7591090625,339.2515256544546L930.0973066875001,339.25562587886526L940.4355043125,339.2595093348544L950.7737019375,339.2629627431423L961.1118995625001,339.26639076737484L971.4500971875001,339.2692671533485L981.7882948125,339.271665142868L992.1264924375,335.2442369993776L1002.4646900625002,336.3624787756242L1012.8028876875001,338.4859466985334L1023.1410853125,339.0775226402446L1033.4792829375,339.17278003018583L1043.8174805625001,339.2098386662663L1054.1556781875001,339.2230293175351L1064.4938758125,339.2321637152607L1074.8320734375002,339.2385760941077L1085.1702710625,339.2438397882186L1095.5084686875,339.24829831348035L1105.8466663125,339.2522576336167L1116.1848639375,339.2557715697374L1126.5230615625,339.25896322381305L1136.8612591875,339.2619207871947L1147.1994568125,339.2646751217806L1157.5376544375001,339.2671710157418L1167.8758520625001,339.2696492747244L1178.2140496875002,339.2718975027063L1188.5522473125002,339.27413936135855" style="fill: none;" fill="none"></path></g><g><path stroke="rgb(255, 112, 67)" stroke-width="2px" d="M185.3756454375,-2.9362477183342315L195.59003231250003,18.67887471914292L205.80441918750003,35.52990834712983L216.0188060625,50.0451315522194L226.2331929375,63.202367770671856L236.4475798125,74.35357724428178L246.66196668750004,84.822254049778L256.8763535625,93.70598726272584L267.0907404375,101.82193301916124L277.3051273125,109.02805243730546L287.5195141875,114.54869322776796L297.7339010625,121.12030040025712L307.9482879375,127.35545002222062L318.16267481250003,133.0941039800644L328.37706168750003,138.4173149943352L338.59144856250003,143.3236673951149L348.80583543750004,147.70309846401216L359.0202223125,151.67028869986535L369.23460918750004,156.2882713854313L379.44899606250004,160.61830006837846L389.6633829375,163.8529260635376L399.87776981250005,168.0065465450287L410.0921566875,171.50892515778543L420.30654356250005,175.1267482817173L430.52093043750006,177.12595509290696L440.7353173125,180.56128038764L450.94970418750006,183.52204166650773L461.1640910625,186.99054532051088L471.3784779375,189.45663108229638L481.59286481250007,192.182222622633L491.8072516875,194.58705257177354L502.0216385625,197.720491874218L512.2360254375001,200.00640555024148L522.4504123125,202.39977531433107L532.6647991875001,204.955643761158L542.8791860625,206.52961029410363L553.0935729375,208.43734909892083L563.3079598125,208.8335906147957L573.5223466875,212.6028005361557L583.7367335625,214.79956071376802L593.9511204375001,216.07862972021104L604.1655073125,217.09424929618837L614.3798941875001,218.63737444877626L624.5942810625,220.9599831879139L634.8086679375,221.73671408295633L645.0230548125,223.1821692466736L655.2374416875,225.1799379169941L665.4518285625,226.34974192380906L675.6662154375001,225.7249933063984L685.8806023125001,228.49020113348962L696.0949891875,229.70405943989755L706.3093760625,231.1797267973423L716.5237629375001,232.39059646725656L726.7381498125001,232.58917226195337L736.9525366875,234.62652351260186L747.1669235625001,235.4920820772648L757.3813104375,235.50404785871507L767.5956973125001,237.5337140440941L777.8100841875001,238.18865238428117L788.0244710625001,238.5209303379059L798.2388579375,240.4727346777916L808.4532448125,240.45025249123574L818.6676316875,240.95791621804239L828.8820185625001,242.88324977755548L839.0964054375,243.46043862700463L849.3107923125001,244.17221723794938L859.5251791875,245.31233150064946L869.7395660625,245.74658824801446L879.9539529375002,245.5343164086342L890.1683398125001,247.3061340481043L900.3827266875,247.07170585095884L910.5971135625,249.26640431880952L920.8115004375001,249.04214984476567L931.0258873125,250.5538156658411L941.2402741875001,248.81267649233342L951.4546610625001,251.7171761274338L961.6690479375001,252.47544713616372L971.8834348125,251.82399741113187L982.0978216875,252.66604012548925L992.3122085625001,254.0804797589779L1002.5265954375001,254.8808557122946L1012.7409823125,252.8770760625601L1022.9553691875001,255.172410684824L1033.1697560625,256.5910299152136L1043.3841429375,256.83629472851754L1053.5985298125001,257.5937399297953L1063.8129166875,257.91853505671025L1074.0273035625,258.70759126842023L1084.2416904375,259.0021573483944L1094.4560773125,258.10753822624685L1104.6704641875,260.08749305009843L1114.8848510625,260.6412615507841L1125.0992379375,261.31932249963285L1135.3136248125,261.5299258708954L1145.5280116875,261.7803814738989L1155.7423985625,261.6476848900318L1165.9567854375,262.7422168284655L1176.1711723125002,262.712493377924" style="fill: none;" fill="none"></path></g><g><path stroke="rgb(51, 187, 238)" stroke-width="2px" d="M175.47078543749998,-20.4732970118523L185.83993575000002,19.96655009984971L196.2090860625,53.13681982755662L206.57823637500002,83.3192170739174L216.9473866875,111.0975596189499L227.31653700000004,136.72392659187318L237.68568731250002,158.5506916821003L248.054837625,177.09396769404412L258.4239879375,195.31269575953485L268.79313825,211.1379192352295L279.1622885625,224.78326945304872L289.531438875,234.45057596564294L299.90058918750003,241.57145183086396L310.2697395,249.2735444635153L320.63888981250005,253.86437662243844L331.008040125,262.00069229602815L341.3771904375,261.7569835960865L351.74634075000006,269.6064912855625L362.1154910625,273.79510465562345L372.484641375,278.1751368224621L382.85379168750006,281.7644555449486L393.222942,284.2282155632973L403.59209231250003,288.06900669932367L413.961242625,290.1139980733395L424.33039293750005,293.40657946020366L434.69954325000003,296.0374924570322L445.0686935625,294.84704888165L455.43784387500006,298.46868644952775L465.8069941875,302.5001014724374L476.1761445,303.51697380393745L486.54529481250006,306.25995505154134L496.914445125,308.45297381579877L507.2835954375,306.993041741848L517.65274575,311.2847827330232L528.0218960625,311.4161984726787L538.3910463750001,315.15721296817065L548.7601966875,316.87580675557257L559.129347,319.06197609305383L569.4984973125,320.38218098431827L579.867647625,319.2582149088383L590.2367979375,317.1400539048016L600.60594825,322.77115486860276L610.9750985625001,324.056717979908L621.3442488750001,325.19847964420916L631.7133991875,326.1226859867573L642.0825495,327.693590150401L652.4516998125,328.8924476925284L662.820850125,329.7449618700892L673.1900004375001,330.46863814741374L683.5591507500001,330.15341073013843L693.9283010624999,329.72832072637976L704.297451375,329.38530868031086L714.6666016875,331.2299083258957L725.035752,332.42581936456264L735.4049023125001,327.7841916207224L745.7740526250001,330.8977469403297L756.1432029375,330.6054132089019L766.51235325,333.25976130105556L776.8815035625,333.95785685833545L787.2506538750001,334.3228395257145L797.6198041875001,334.64061985369773L807.9889545,334.9188723742962L818.3581048125001,335.17373965699227L828.727255125,335.41520687956364L839.0964054375,335.6318359768018L849.4655557500001,335.8623250864446L859.8347060625,336.0040943168104L870.203856375,335.8503270030022L880.5730066875001,335.5905901949853L890.9421570000001,332.89670586884023L901.3113073125,335.82015027124436L911.680457625,336.36674439413474L922.0496079375,336.5868136535399L932.41875825,336.73872061837466L942.7879085625001,336.85144403781743L953.1570588750001,336.95957162110136L963.5262091875,337.05755479885266L973.8953595,337.1468252164312L984.2645098125,337.2372179526836L994.6336601250001,337.32999120531605L1005.0028104375001,337.41780469771476L1015.3719607500001,337.500130186975L1025.7411110625,337.11041595572607L1036.110261375,336.3113617507741L1046.4794116875,336.8067064808682L1056.8485620000001,337.58314911574126L1067.2177123125002,336.54311063811184L1077.586862625,335.9770807225257L1087.9560129375,336.4758434949443L1098.32516325,337.61061897566543L1108.6943135625002,337.75963245444L1119.063463875,337.92453421228566L1129.4326141875001,337.98434767075815L1139.8017645,338.037698975252L1150.1709148125,338.0837661805097L1160.5400651250002,338.1274468127638L1170.9092154375,338.1697961289436L1181.27836575,338.2077881872654L1191.6475160625,338.24060604576954" style="fill: none;" fill="none"></path></g></g></g></g></g></g><g transform="translate(51, 377)" clip-path="url(#clip_1)"><clipPath id="clip_1"><rect width="1238" height="23"></rect></clipPath><g><g><line x1="0" y1="0" x2="0" y2="5" style="visibility: inherit;" fill="rgb(0, 0, 0)" stroke="rgb(204, 204, 204)" stroke-width="1px"></line><line x1="154.7634375" y1="0" x2="154.7634375" y2="5" style="visibility: inherit;" fill="rgb(0, 0, 0)" stroke="rgb(204, 204, 204)" stroke-width="1px"></line><line x1="309.526875" y1="0" x2="309.526875" y2="5" style="visibility: inherit;" fill="rgb(0, 0, 0)" stroke="rgb(204, 204, 204)" stroke-width="1px"></line><line x1="464.2903125" y1="0" x2="464.2903125" y2="5" style="visibility: inherit;" fill="rgb(0, 0, 0)" stroke="rgb(204, 204, 204)" stroke-width="1px"></line><line x1="619.05375" y1="0" x2="619.05375" y2="5" style="visibility: inherit;" fill="rgb(0, 0, 0)" stroke="rgb(204, 204, 204)" stroke-width="1px"></line><line x1="773.8171875" y1="0" x2="773.8171875" y2="5" style="visibility: inherit;" fill="rgb(0, 0, 0)" stroke="rgb(204, 204, 204)" stroke-width="1px"></line><line x1="928.580625" y1="0" x2="928.580625" y2="5" style="visibility: inherit;" fill="rgb(0, 0, 0)" stroke="rgb(204, 204, 204)" stroke-width="1px"></line><line x1="1083.3440625" y1="0" x2="1083.3440625" y2="5" style="visibility: inherit;" fill="rgb(0, 0, 0)" stroke="rgb(204, 204, 204)" stroke-width="1px"></line><line x1="1238.1075" y1="0" x2="1238.1075" y2="5" style="visibility: inherit;" fill="rgb(0, 0, 0)" stroke="rgb(204, 204, 204)" stroke-width="1px"></line></g><g transform="translate(0, 8)"><text x="0" y="0" dx="0em" dy="0.95em" style="text-anchor: middle; visibility: hidden; font-family: Roboto, sans-serif; font-size: 12px; font-weight: 200;" fill="rgb(33, 33, 33)" stroke="none" stroke-width="1px">-5k</text><text x="154.7634375" y="0" dx="0em" dy="0.95em" style="text-anchor: middle; visibility: inherit; font-family: Roboto, sans-serif; font-size: 12px; font-weight: 200;" fill="rgb(33, 33, 33)" stroke="none" stroke-width="1px">0</text><text x="309.526875" y="0" dx="0em" dy="0.95em" style="text-anchor: middle; visibility: inherit; font-family: Roboto, sans-serif; font-size: 12px; font-weight: 200;" fill="rgb(33, 33, 33)" stroke="none" stroke-width="1px">5k</text><text x="464.2903125" y="0" dx="0em" dy="0.95em" style="text-anchor: middle; visibility: inherit; font-family: Roboto, sans-serif; font-size: 12px; font-weight: 200;" fill="rgb(33, 33, 33)" stroke="none" stroke-width="1px">10k</text><text x="619.05375" y="0" dx="0em" dy="0.95em" style="text-anchor: middle; visibility: inherit; font-family: Roboto, sans-serif; font-size: 12px; font-weight: 200;" fill="rgb(33, 33, 33)" stroke="none" stroke-width="1px">15k</text><text x="773.8171875" y="0" dx="0em" dy="0.95em" style="text-anchor: middle; visibility: inherit; font-family: Roboto, sans-serif; font-size: 12px; font-weight: 200;" fill="rgb(33, 33, 33)" stroke="none" stroke-width="1px">20k</text><text x="928.580625" y="0" dx="0em" dy="0.95em" style="text-anchor: middle; visibility: inherit; font-family: Roboto, sans-serif; font-size: 12px; font-weight: 200;" fill="rgb(33, 33, 33)" stroke="none" stroke-width="1px">25k</text><text x="1083.3440625" y="0" dx="0em" dy="0.95em" style="text-anchor: middle; visibility: inherit; font-family: Roboto, sans-serif; font-size: 12px; font-weight: 200;" fill="rgb(33, 33, 33)" stroke="none" stroke-width="1px">30k</text><text x="1238.1075" y="0" dx="0em" dy="0.95em" style="text-anchor: middle; visibility: hidden; font-family: Roboto, sans-serif; font-size: 12px; font-weight: 200;" fill="rgb(33, 33, 33)" stroke="none" stroke-width="1px">35k</text></g><line x1="0" y1="0" x2="1238.1075" y2="0" fill="rgb(0, 0, 0)" stroke="rgb(204, 204, 204)" stroke-width="1px"></line></g></g></g></g></svg>